<?xml version="1.0" encoding="iso-8859-1"?>

<!DOCTYPE svg PUBLIC "-//W3C//DTD SVG 1.1//EN" "http://www.w3.org/Graphics/SVG/1.1/DTD/svg11.dtd">
<!-- Uploaded to: SVG Repo, www.svgrepo.com, Generator: SVG Repo Mixer Tools -->
<svg version="1.1" id="_x34_" xmlns="http://www.w3.org/2000/svg" xmlns:xlink="http://www.w3.org/1999/xlink" 
	 viewBox="0 0 512 512"  xml:space="preserve">
<g>
	<g>
		<g>
			<g>
				<rect x="209.445" y="21.061" style="fill:#787878;" width="52.326" height="8.744"/>
				<rect x="209.445" y="93.246" style="fill:#787878;" width="52.326" height="8.744"/>
				<rect x="209.445" y="45.123" style="fill:#787878;" width="24.531" height="8.744"/>
				<rect x="209.445" y="69.185" style="fill:#787878;" width="24.531" height="8.744"/>
				<rect x="209.445" y="117.308" style="fill:#787878;" width="24.531" height="8.744"/>
				<rect x="209.445" y="141.37" style="fill:#787878;" width="24.531" height="8.744"/>
				<rect x="209.445" y="165.432" style="fill:#787878;" width="52.326" height="8.744"/>
				<rect x="209.445" y="237.617" style="fill:#787878;" width="52.326" height="8.744"/>
				<rect x="209.445" y="189.494" style="fill:#787878;" width="24.531" height="8.744"/>
				<rect x="209.445" y="213.555" style="fill:#787878;" width="24.531" height="8.744"/>
				<rect x="209.445" y="261.679" style="fill:#787878;" width="24.531" height="8.744"/>
				<rect x="209.445" y="285.741" style="fill:#787878;" width="24.531" height="8.744"/>
			</g>
			<g>
				<path style="fill:#787878;" d="M293.996,30.094c-0.798,0-1.517,0.08-2.315,0.159l0.958-8.142h16.843v-9.819h-25.305
					l-2.954,26.582c1.597-0.239,3.193-0.319,5.268-0.319c8.222,0,12.772,2.794,12.772,8.541c0,5.188-4.39,7.983-9.18,7.983
					c-3.752,0-7.264-1.118-9.419-2.155l-2.076,9.02c2.475,1.277,7.185,2.474,12.294,2.474c12.852,0,20.355-8.461,20.355-18.2
					C311.239,34.485,301.979,30.094,293.996,30.094z"/>
				<path style="fill:#787878;" d="M334.947,11.575c-12.293,0-17.641,12.054-17.641,26.582c0,12.852,4.31,26.262,17.402,26.262
					c10.936,0,17.402-9.898,17.402-26.662C352.11,24.985,348.118,11.575,334.947,11.575z M334.867,54.92
					c-3.752,0-5.667-5.268-5.667-16.923c0-11.655,2.155-17.003,5.667-17.003c3.672,0,5.349,5.987,5.349,17.003
					C340.216,51.966,337.661,54.92,334.867,54.92z"/>
				<path style="fill:#787878;" d="M300.542,154.383v-0.16c5.348-2.156,8.541-6.386,8.541-11.655
					c0-6.945-5.428-12.692-15.566-12.692c-5.588,0-11.016,1.676-13.73,3.353l2.315,8.541c1.916-1.198,5.269-2.554,8.541-2.554
					c4.231,0,6.466,2.235,6.466,5.348c0,4.071-4.071,5.908-7.663,6.147h-3.831v8.302h3.432c4.949,0,9.499,2.315,9.499,7.424
					c0,3.911-2.954,6.945-8.222,6.945c-3.672,0-7.743-1.437-9.659-2.634l-2.555,8.94c2.634,1.676,7.583,3.033,13.251,3.033
					c10.058,0,16.683-4.79,18.679-11.415c0.399-1.357,0.639-2.794,0.639-4.231C310.68,160.29,306.13,155.739,300.542,154.383z"/>
				<path style="fill:#787878;" d="M334.947,129.876c-12.293,0-17.641,12.054-17.641,26.502c0,12.932,4.31,26.342,17.402,26.342
					c10.936,0,17.402-9.898,17.402-26.662C352.11,143.287,348.118,129.876,334.947,129.876z M334.867,173.221
					c-3.752,0-5.667-5.269-5.667-16.923c0-11.735,2.155-17.003,5.667-17.003c3.672,0,5.349,5.987,5.349,17.003
					C340.216,170.268,337.661,173.221,334.867,173.221z"/>
				<path style="fill:#787878;" d="M293.677,248.816l-13.171,6.546l2.634,8.541l8.861-4.47h0.16v40.791h11.575v-51.408H293.677z"/>
				<path style="fill:#787878;" d="M334.947,248.097c-12.293,0-17.641,12.134-17.641,26.582c0,12.932,4.31,26.262,17.402,26.262
					c10.936,0,17.402-9.818,17.402-26.582C352.11,261.588,348.118,248.097,334.947,248.097z M334.867,291.522
					c-3.752,0-5.667-5.269-5.667-17.003c0-11.655,2.155-16.923,5.667-16.923c3.672,0,5.349,5.907,5.349,16.923
					C340.216,288.489,337.661,291.522,334.867,291.522z"/>
			</g>
		</g>
		<g>
			<path style="fill:#787878;" d="M235.804,394.098c0,65.138-52.765,117.902-117.902,117.902V0c9.898,0,19.238,2.395,27.54,6.706
				c11.495,5.827,20.834,15.246,26.662,26.661c4.23,8.222,6.625,17.562,6.625,27.46v232.292
				C212.894,313.714,235.804,351.232,235.804,394.098z"/>
			<path style="fill:#999999;" d="M117.902,0v512c-13.889,0-27.22-2.395-39.593-6.785c-33.288-11.894-59.63-38.236-71.524-71.523
				C2.395,421.319,0,407.987,0,394.098c0-42.866,22.91-80.384,57.075-100.979V60.827C57.075,27.38,84.455,0,117.902,0z"/>
			<path style="fill:#C55F5E;" d="M117.909,489.471c-52.585,0-95.365-42.78-95.365-95.365c0-33.716,17.265-64.264,46.181-81.717
				l10.887-6.571V60.844c0-21.117,17.179-38.296,38.296-38.296c21.117,0,38.296,17.179,38.296,38.296v244.975l10.887,6.571
				c28.918,17.454,46.183,48.003,46.183,81.717C213.276,446.691,170.494,489.471,117.909,489.471z"/>
			<path style="fill:#F4F9F4;" d="M156.206,60.844v102.882H79.613V60.844c0-21.108,17.165-38.296,38.296-38.296
				C139.018,22.547,156.206,39.736,156.206,60.844z"/>
			<path style="opacity:0.16;fill:#040000;" d="M213.268,394.106c0,52.579-42.779,95.358-95.358,95.358V22.547
				c21.108,0,38.296,17.188,38.296,38.296v244.978l10.881,6.578C196.012,329.836,213.268,360.383,213.268,394.106z"/>
			<path style="opacity:0.16;fill:#040000;" d="M156.206,60.844v102.882H117.91V22.547
				C139.018,22.547,156.206,39.736,156.206,60.844z"/>
			<circle style="fill:#D18B8B;" cx="76.509" cy="358.733" r="29.013"/>
		</g>
	</g>
	<circle style="fill:#787878;" cx="262.954" cy="96.968" r="9.943"/>
	<circle style="fill:#787878;" cx="262.954" cy="241.402" r="9.943"/>
</g>
</svg>