<?xml version="1.0" standalone="no"?><!DOCTYPE svg PUBLIC "-//W3C//DTD SVG 1.1//EN" "http://www.w3.org/Graphics/SVG/1.1/DTD/svg11.dtd"><svg t="1710151913839" class="icon" viewBox="0 0 1024 1024" version="1.1" xmlns="http://www.w3.org/2000/svg" p-id="1630" xmlns:xlink="http://www.w3.org/1999/xlink" width="200" height="200"><path d="M64 332.8h256v627.2H140.8a76.8 76.8 0 0 1-76.8-76.8V332.8z m896 0v550.4a76.8 76.8 0 0 1-76.8 76.8H396.8V332.8h563.2zM883.2 64a76.8 76.8 0 0 1 76.8 76.8v115.2H396.8V64h486.4zM320 256H64v-115.2a76.8 76.8 0 0 1 76.8-76.8h179.2v192z" fill="#6B57FE" p-id="1631"></path><path d="M140.8 64h179.2v192H64v-115.2a76.8 76.8 0 0 1 76.8-76.8z" fill="#FFBA00" p-id="1632"></path></svg>