<?xml version="1.0" standalone="no"?><!DOCTYPE svg PUBLIC "-//W3C//DTD SVG 1.1//EN" "http://www.w3.org/Graphics/SVG/1.1/DTD/svg11.dtd"><svg t="1713525508883" class="icon" viewBox="0 0 1129 1024" version="1.1" xmlns="http://www.w3.org/2000/svg" p-id="33540" xmlns:xlink="http://www.w3.org/1999/xlink" width="70.5625" height="64"><path d="M971.034483 730.924138H158.896552c-10.593103 0-17.655172-8.827586-17.655173-17.655172V167.724138c0-10.593103 8.827586-17.655172 17.655173-17.655172h812.137931c10.593103 0 17.655172 8.827586 17.655172 17.655172v545.544828c0 10.593103-7.062069 17.655172-17.655172 17.655172z m-794.482759-35.310345h776.827586V185.37931H176.551724v510.234483z" fill="#3164AF" p-id="33541"></path><path d="M564.965517 872.165517c-10.593103 0-17.655172-8.827586-17.655172-17.655172v-135.944828c0-10.593103 8.827586-17.655172 17.655172-17.655172s17.655172 8.827586 17.655173 17.655172v135.944828c0 8.827586-7.062069 17.655172-17.655173 17.655172z" fill="#3164AF" p-id="33542"></path><path d="M722.096552 872.165517H406.068966c-10.593103 0-17.655172-8.827586-17.655173-17.655172s8.827586-17.655172 17.655173-17.655173h316.027586c10.593103 0 17.655172 8.827586 17.655172 17.655173s-7.062069 17.655172-17.655172 17.655172zM564.965517 480.22069c-37.075862 0-68.855172-30.013793-68.855172-68.855173 0-37.075862 30.013793-68.855172 68.855172-68.855172s68.855172 30.013793 68.855173 68.855172c0 37.075862-31.77931 68.855172-68.855173 68.855173z m0-100.634483c-17.655172 0-31.77931 14.124138-31.77931 31.77931s14.124138 31.77931 31.77931 31.779311 31.77931-14.124138 31.779311-31.779311-14.124138-31.77931-31.779311-31.77931z" fill="#3164AF" p-id="33543"></path><path d="M564.965517 587.917241c-97.103448 0-174.786207-79.448276-174.786207-174.786207s79.448276-174.786207 174.786207-174.786206 174.786207 79.448276 174.786207 174.786206-77.682759 174.786207-174.786207 174.786207z m0-316.027586c-75.917241 0-139.475862 61.793103-139.475862 139.475862s61.793103 139.475862 139.475862 139.475862 139.475862-61.793103 139.475862-139.475862-63.558621-139.475862-139.475862-139.475862z" fill="#3164AF" p-id="33544"></path><path d="M564.965517 328.386207c-14.124138 0-26.482759-12.358621-26.482758-26.482759s12.358621-26.482759 26.482758-26.482758 26.482759 12.358621 26.482759 26.482758-12.358621 26.482759-26.482759 26.482759z m0-37.075862c-5.296552 0-10.593103 5.296552-10.593103 10.593103s5.296552 10.593103 10.593103 10.593104 10.593103-5.296552 10.593104-10.593104-5.296552-10.593103-10.593104-10.593103zM674.427586 616.165517H459.034483c-10.593103 0-17.655172-8.827586-17.655173-17.655172s8.827586-17.655172 17.655173-17.655173h215.393103c10.593103 0 17.655172 8.827586 17.655173 17.655173s-8.827586 17.655172-17.655173 17.655172z" fill="#3164AF" p-id="33545"></path><path d="M508.468966 616.165517c-3.531034 0-7.062069-1.765517-10.593104-3.531034-8.827586-5.296552-10.593103-17.655172-5.296552-24.717242l22.951724-31.77931c5.296552-8.827586 17.655172-10.593103 24.717242-5.296552 8.827586 5.296552 10.593103 17.655172 5.296552 24.717242l-22.951725 31.77931c-3.531034 5.296552-8.827586 8.827586-14.124137 8.827586zM619.696552 616.165517c-5.296552 0-10.593103-1.765517-14.124138-7.062069L582.62069 575.558621c-5.296552-8.827586-3.531034-19.42069 3.531034-24.717242 8.827586-5.296552 19.42069-3.531034 24.717242 3.531035l22.951724 31.77931c5.296552 8.827586 3.531034 19.42069-3.531035 24.717242-1.765517 3.531034-5.296552 5.296552-10.593103 5.296551z" fill="#3164AF" p-id="33546"></path></svg>