<?xml version="1.0" standalone="no"?><!DOCTYPE svg PUBLIC "-//W3C//DTD SVG 1.1//EN" "http://www.w3.org/Graphics/SVG/1.1/DTD/svg11.dtd"><svg t="1713525043788" class="icon" viewBox="0 0 1137 1024" version="1.1" xmlns="http://www.w3.org/2000/svg" p-id="24731" xmlns:xlink="http://www.w3.org/1999/xlink" width="71.0625" height="64"><path d="M1106.592549 320.381097a31.286994 31.286994 0 0 0-31.116338 30.206171v120.198943a31.173223 31.173223 0 0 0 62.289561 0V350.587268a31.286994 31.286994 0 0 0-31.173223-30.149286zM413.784724 440.58004a40.729978 40.729978 0 0 1-41.298832-40.047352c0-22.071552 18.487769-39.990467 41.298832-39.990468 22.697292 0 41.298832 17.918915 41.298833 39.990468a40.843749 40.843749 0 0 1-41.298833 40.047352z m0-139.824421c-58.136924 0-103.588394 44.086219-103.588394 100.289038 0 56.31659 45.508355 100.51658 103.588394 100.51658 58.023153 0 103.588394-44.143105 103.588394-100.51658 0-56.202819-45.565241-100.289038-103.531508-100.289038z m310.139442 139.824421A40.729978 40.729978 0 0 1 682.682219 400.532688c0-22.071552 18.544655-39.990467 41.298832-39.990468 22.754178 0 41.298832 17.918915 41.298833 39.990468a40.729978 40.729978 0 0 1-41.298833 40.047352z m0-139.824421c-58.023153 0-103.531508 44.086219-103.531509 100.289038 0 56.31659 45.508355 100.51658 103.531509 100.51658 58.136924 0 103.588394-44.143105 103.588394-100.51658 0-56.202819-45.508355-100.289038-103.531509-100.289038zM910.223995 607.197506a34.58635 34.58635 0 0 1-35.32586 34.245038H262.810755a34.472579 34.472579 0 0 1-35.268975-34.245038V214.232858c0-20.364989 16.724321-34.245037 35.268975-34.245037h610.267045c20.933843 0 35.325861 16.212352 35.325861 34.245037v392.964648H910.223995z m-124.010268 214.685667v140.507047H351.495163v-140.507047h122.189934v-120.028288h186.186059v120.028288h126.342571zM476.074286 120.201219h186.186058V59.731992H476.074286v60.412341z m458.61045 0h-210.76057V36.010762A36.008486 36.008486 0 0 0 688.598305 0.002275h-239.48772a34.870777 34.870777 0 0 0-35.268975 35.951601v84.190457H200.57808c-18.60154 0-35.268975 16.269237-35.268976 34.301923v511.286372a36.406684 36.406684 0 0 0 37.08931 36.065372h210.703685v59.786602H324.531462a34.927663 34.927663 0 0 0-35.32586 36.008486v190.395582c0 20.251218 16.838091 35.951601 35.268975 35.9516h486.370547a34.870777 34.870777 0 0 0 35.268976-35.9516V797.536203a36.008486 36.008486 0 0 0-35.268976-36.008487h-86.920958v-60.355456h213.26353c20.876958 0 36.975539-16.212352 36.975539-36.008486v-511.400143c-1.706563-19.739249-18.487769-33.619297-39.478499-33.619298z m89.253262 120.028287a31.286994 31.286994 0 0 0-31.173223 30.206171v281.014094c0 16.212352 14.448903 30.149285 31.173223 30.149286a31.286994 31.286994 0 0 0 31.116338-30.149286v-281.014094a31.286994 31.286994 0 0 0-31.116338-30.149285zM31.116341 320.437982a31.230109 31.230109 0 0 0-31.059452 30.149286v120.198943a31.173223 31.173223 0 0 0 62.17579 0V350.587268c0-16.212352-14.903986-30.149285-31.116338-30.149286z m82.654551-80.208476a31.286994 31.286994 0 0 0-31.116338 30.206171v281.014094a31.286994 31.286994 0 0 0 62.289561 0v-281.014094a31.286994 31.286994 0 0 0-31.173223-30.149285z" fill="#1296db" p-id="24732"></path></svg>