<?xml version="1.0" standalone="no"?><!DOCTYPE svg PUBLIC "-//W3C//DTD SVG 1.1//EN" "http://www.w3.org/Graphics/SVG/1.1/DTD/svg11.dtd"><svg t="1713525288381" class="icon" viewBox="0 0 1120 1024" version="1.1" xmlns="http://www.w3.org/2000/svg" p-id="29781" xmlns:xlink="http://www.w3.org/1999/xlink" width="70" height="64"><path d="M312 288c-48 0-88-40-88-88S264 112 312 112 400 152 400 200 360 288 312 288z m0-144c-30.4 0-56 25.6-56 56s25.6 56 56 56 56-25.6 56-56S342.4 144 312 144zM808 288c-48 0-88-40-88-88S760 112 808 112 896 152 896 200 856 288 808 288z m0-144c-30.4 0-56 25.6-56 56s25.6 56 56 56 56-25.6 56-56S838.4 144 808 144z" p-id="29782" fill="#1296db"></path><path d="M816 416H304c-115.2 0-208-92.8-208-208S188.8 0 304 0h512c115.2 0 208 92.8 208 208s-92.8 208-208 208zM304 64c-80 0-144 64-144 144s64 144 144 144h512c80 0 144-64 144-144s-64-144-144-144H304zM216 1024h-112C46.4 1024 0 977.6 0 920v-336C0 526.4 46.4 480 104 480h112c57.6 0 104 46.4 104 104v336c0 57.6-46.4 104-104 104z m-112-496C73.6 528 48 553.6 48 584v336C48 950.4 73.6 976 104 976h112c30.4 0 56-25.6 56-56v-336c0-30.4-25.6-56-56-56h-112z" p-id="29783" fill="#1296db"></path><path d="M32 592h256v32H32zM32 736h256v32H32zM32 880h256v32H32zM288 528h544v32H288z" p-id="29784" fill="#1296db"></path><path d="M544 416h32v144h-32z" p-id="29785" fill="#1296db"></path><path d="M304 944h528v32H304z" p-id="29786" fill="#1296db"></path><path d="M1016 1024h-112c-57.6 0-104-46.4-104-104v-336c0-57.6 46.4-104 104-104h112c57.6 0 104 46.4 104 104v336c0 57.6-46.4 104-104 104z m-112-496c-30.4 0-56 25.6-56 56v336c0 30.4 25.6 56 56 56h112c30.4 0 56-25.6 56-56v-336c0-30.4-25.6-56-56-56h-112z" p-id="29787" fill="#1296db"></path><path d="M832 592h256v32H832zM832 736h256v32H832zM832 880h256v32H832z" p-id="29788" fill="#1296db"></path></svg>