<?xml version="1.0" standalone="no"?><!DOCTYPE svg PUBLIC "-//W3C//DTD SVG 1.1//EN" "http://www.w3.org/Graphics/SVG/1.1/DTD/svg11.dtd"><svg t="1712655659529" class="icon" viewBox="0 0 1024 1024" version="1.1" xmlns="http://www.w3.org/2000/svg" p-id="5661" xmlns:xlink="http://www.w3.org/1999/xlink" width="64" height="64"><path d="M949.49 876.57L147.43 74.51l-72.91 72.91 295.9 295.9v45.45c0 38.35 13.64 71.53 40.93 99.56 27.28 28.02 60.84 42.03 100.66 42.03 14.05 0 27.06-2.34 39.49-5.95l71.5 71.5c-34.15 17.99-71.06 27.37-110.99 27.37-30.97 0-60.84-5.9-89.6-17.7-28.76-11.8-54.2-28.76-76.33-50.89-22.12-22.12-39.45-47.56-51.99-76.32-12.54-28.76-18.81-58.63-18.81-89.6h-92.92c0 54.57 12.17 105.45 36.5 152.65s58.26 85.91 101.77 116.15c43.51 30.24 91.81 49.78 144.91 58.63V960h92.92V816.2c48.51-8.08 92.82-25.55 133.33-51.49l184.78 184.78 72.92-72.92zM653.59 488.77V205.59c0-39.82-13.64-73.38-40.93-100.66C585.38 77.64 551.82 64 512 64c-39.82 0-73.38 13.64-100.66 40.93-27.29 27.28-40.93 60.84-40.93 100.66v14.57l281.95 281.95c0.4-4.45 1.23-8.74 1.23-13.34zM805.14 641.42c24.34-47.2 36.5-98.08 36.5-152.65h-92.92c0 32.34-6.16 62.77-18.39 91.31l69.79 69.79c1.6-2.88 3.5-5.5 5.02-8.45z" p-id="5662" fill="#1296db"></path></svg>