<?xml version="1.0" standalone="no"?><!DOCTYPE svg PUBLIC "-//W3C//DTD SVG 1.1//EN" "http://www.w3.org/Graphics/SVG/1.1/DTD/svg11.dtd"><svg t="1712655695685" class="icon" viewBox="0 0 1024 1024" version="1.1" xmlns="http://www.w3.org/2000/svg" p-id="5879" xmlns:xlink="http://www.w3.org/1999/xlink" width="64" height="64"><path d="M841.64 488.77c0 54.57-12.17 105.45-36.5 152.65s-58.26 85.91-101.77 116.15c-43.51 30.24-91.81 49.78-144.91 58.63V960h-92.92V816.2c-53.1-8.85-101.4-28.39-144.91-58.63-43.51-30.23-77.43-68.95-101.77-116.15s-36.5-98.08-36.5-152.65h92.92c0 30.97 6.27 60.84 18.81 89.6 12.54 28.76 29.87 54.2 51.99 76.32 22.12 22.12 47.57 39.09 76.33 50.89 28.76 11.8 58.63 17.7 89.6 17.7 42.77 0 82.23-10.32 118.36-30.97 36.13-20.65 64.89-49.04 86.28-85.18 21.39-36.14 32.08-75.59 32.08-118.36h92.91zM512 64c39.82 0 73.38 13.64 100.66 40.93 27.28 27.28 40.93 60.84 40.93 100.66v283.18c0 38.35-13.64 71.53-40.93 99.56-27.28 28.02-60.84 42.03-100.66 42.03-39.82 0-73.38-14.01-100.66-42.03-27.29-28.02-40.93-61.21-40.93-99.56V205.59c0-39.82 13.64-73.38 40.93-100.66C438.62 77.64 472.18 64 512 64z" p-id="5880" fill="#1296db"></path></svg>