<?xml version="1.0" standalone="no"?><!DOCTYPE svg PUBLIC "-//W3C//DTD SVG 1.1//EN" "http://www.w3.org/Graphics/SVG/1.1/DTD/svg11.dtd"><svg t="1713019070386" class="icon" viewBox="0 0 1024 1024" version="1.1" xmlns="http://www.w3.org/2000/svg" p-id="2155" xmlns:xlink="http://www.w3.org/1999/xlink" width="64" height="64"><path d="M85.333333 298.666667a42.666667 42.666667 0 0 1 42.666667-42.666667h661.333333a42.666667 42.666667 0 0 1 42.666667 42.666667v426.666666a42.666667 42.666667 0 0 1-42.666667 42.666667H128a42.666667 42.666667 0 0 1-42.666667-42.666667V298.666667z m85.333334 42.666666v341.333334h576V341.333333H170.666667z" fill="#ea9518" p-id="2156"></path><path d="M320 405.333333v213.333334h-85.333333V405.333333h85.333333zM448 405.333333v213.333334h-85.333333V405.333333h85.333333zM576 405.333333v213.333334h-85.333333V405.333333h85.333333zM853.333333 426.666667v-34.730667l85.333334 49.258667v141.696l-85.333334 49.28V426.666667z" fill="#ea9518" p-id="2157"></path></svg>