<?xml version="1.0" standalone="no"?><!DOCTYPE svg PUBLIC "-//W3C//DTD SVG 1.1//EN" "http://www.w3.org/Graphics/SVG/1.1/DTD/svg11.dtd"><svg t="1713231949077" class="icon" viewBox="0 0 1024 1024" version="1.1" xmlns="http://www.w3.org/2000/svg" p-id="5765" xmlns:xlink="http://www.w3.org/1999/xlink" width="64" height="64"><path d="M988.077781 473.917535l-179.105354-347.691249c-16.667852-33.321254-54.1651-54.143426-91.626224-54.143425H300.794401c-37.504473 0-74.965597 20.822171-91.647899 54.143425L30.026698 473.917535c-16.660627 29.152485-16.660627 66.656958 0 99.970987l179.119804 347.669574c16.682302 33.335704 54.143426 54.1651 91.647899 54.1651h416.559027c37.461124 0 74.958372-20.829396 91.626224-54.1651l179.098129-347.669574c16.660627-33.314029 16.660627-66.649733 0-99.970987z m-74.965597 58.312194l-179.105354 347.684024c-4.175994 8.330314-12.506308 12.491858-16.653402 12.491858H300.794401c-8.330314 0-16.660627-4.161544-16.660627-12.491858l-179.105354-347.684024c-4.183219-4.168769-4.183219-12.491858 0-20.822171l179.105354-347.669574c0-4.183219 8.330314-8.351988 16.660627-8.351988h416.559027c8.323089 0 16.653402 4.168769 16.653402 12.513533l179.105354 347.669573c4.190444 4.161544 4.190444 12.491858 0 16.660627z m0 0" fill="#0862A9" p-id="5766"></path><path d="M242.482206 461.425677h49.974656c16.660627 0 33.321254-12.491858 33.321254-33.321255 0-20.843846-16.660627-29.17416-33.321254-29.174159h-49.974656c-41.666018 0-79.148816 33.335704-79.148816 79.148816s33.321254 79.148816 79.148816 79.148816c8.330314 0 16.660627 8.330314 16.660627 16.660627s-8.330314 16.660627-16.660627 16.660627h-45.827562c-16.660627 0-33.321254 12.491858-33.321254 33.321254 0 20.822171 16.660627 24.983716 33.321254 24.983716h49.974656c41.666018 0 79.148816-33.314029 79.148816-79.127141 0-45.834787-33.321254-79.148816-79.148816-79.148816-8.330314 0-16.660627-8.330314-16.660627-16.660627 0.007225-8.323089 4.190444-12.491858 12.513533-12.491858z m224.94014-62.488189H371.612903c-16.660627 0-29.17416 12.491858-29.174159 33.335704 0 20.822171 12.513533 33.321254 33.314029 33.321254h16.660627V623.870403c0 16.653402 12.513533 33.314029 33.342929 33.31403s33.314029-12.491858 33.314029-33.31403V465.594446h8.351988c16.660627 0 33.321254-12.499083 33.321255-33.321254 0-20.843846-16.660627-33.335704-33.321255-33.335704z m124.940254 0c-41.644343 0-79.148816 37.504473-79.148816 79.148816v91.647899c0 41.651568 37.504473 79.127141 79.148816 79.127141 41.651568 0 79.156041-37.482799 79.156041-79.127141V478.086304c0-41.651568-33.314029-79.148816-79.156041-79.148816z m16.667852 170.78949c0 8.330314-8.330314 16.667852-16.667852 16.667852-8.323089 0-16.660627-8.330314-16.660627-16.667852V478.086304c0-8.330314 8.330314-16.660627 16.660627-16.660627s16.667852 8.330314 16.667852 16.660627v91.640674z m166.627946-170.78949h-49.981882c-16.660627 0-33.335704 12.491858-33.335704 33.335704v183.266898c0 16.667852 12.491858 33.314029 33.335704 33.314029 20.807722 0 33.314029-12.491858 33.31403-33.314029v-62.466515h16.667852c41.644343 0 79.148816-33.335704 79.148816-79.15604 0-45.813112-37.504473-74.980047-79.148816-74.980047z m0 91.640674h-16.667852v-33.321255h16.667852c8.323089 0 16.653402 8.330314 16.653402 16.660628s-8.330314 16.660627-16.653402 16.660627z m0 0" fill="#0862A9" p-id="5767"></path></svg>