<?xml version="1.0" standalone="no"?><!DOCTYPE svg PUBLIC "-//W3C//DTD SVG 1.1//EN" "http://www.w3.org/Graphics/SVG/1.1/DTD/svg11.dtd"><svg t="1713018516927" class="icon" viewBox="0 0 1024 1024" version="1.1" xmlns="http://www.w3.org/2000/svg" p-id="4578" xmlns:xlink="http://www.w3.org/1999/xlink" width="64" height="64"><path d="M0 512a512 512 0 0 1 512-512 512 512 0 0 1 512 512 512 512 0 0 1-512 512 512 512 0 0 1-512-512z m73.142857 0a439.369143 439.369143 0 0 0 438.857143 438.857143 439.369143 439.369143 0 0 0 438.857143-438.857143 439.369143 439.369143 0 0 0-438.857143-438.857143 439.369143 439.369143 0 0 0-438.857143 438.857143z m182.857143 73.142857a36.571429 36.571429 0 0 1-36.571429-36.571428 36.571429 36.571429 0 0 1 36.571429-36.571429h512a36.571429 36.571429 0 0 1 36.571429 36.571429 36.571429 36.571429 0 0 1-36.571429 36.571428z" fill="#1296db" p-id="4579"></path></svg>