<?xml version="1.0" standalone="no"?><!DOCTYPE svg PUBLIC "-//W3C//DTD SVG 1.1//EN" "http://www.w3.org/Graphics/SVG/1.1/DTD/svg11.dtd"><svg t="1712653593307" class="icon" viewBox="0 0 1024 1024" version="1.1" xmlns="http://www.w3.org/2000/svg" p-id="3872" xmlns:xlink="http://www.w3.org/1999/xlink" width="200" height="200"><path d="M213.55 270.24C400.23 39.63 767.42 99.5 871.68 377c19.58-7.28 39.84-15.03 59.87-22.31-71.71-191.45-263.84-309.6-467.13-288.2C261.13 88.34 98.59 244.51 69 446.43c95.84-27.32 192.36-55.32 288.2-82.64-48.26-30.95-95.61-62.14-143.65-93.55zM666.57 660.2l143.42 93.56C622.87 984.37 256.12 924.95 151.86 647c-19.58 7.28-39.84 15.03-59.87 22.31 71.71 191.45 263.84 309.6 467.13 288.2C762.41 936.11 925.41 779.94 955 577.57c-95.61 27.31-192.13 55.31-288.43 82.63z" p-id="3873" fill="#1296db"></path><path d="M393.85 512.23c0 65.11 52.59 117.92 117.69 117.92s117.92-52.59 117.92-117.69v-0.23c0-65.11-52.81-117.92-117.69-117.92s-117.92 52.81-117.92 117.92z" p-id="3874" fill="#1296db"></path></svg>