<?xml version="1.0" standalone="no"?><!DOCTYPE svg PUBLIC "-//W3C//DTD SVG 1.1//EN" "http://www.w3.org/Graphics/SVG/1.1/DTD/svg11.dtd"><svg t="1713181758132" class="icon" viewBox="0 0 1024 1024" version="1.1" xmlns="http://www.w3.org/2000/svg" p-id="6176" xmlns:xlink="http://www.w3.org/1999/xlink" width="64" height="64"><path d="M64 184.66v654.68c0 31.3 24.93 56.52 55.97 56.52h784.07c31.31 0 55.97-25.49 55.97-56.52V184.66c0-31.3-24.93-56.52-55.97-56.52H119.97C88.93 127.86 64 153.36 64 184.66z m64 551.9l0.55-520.59c0.83-13.85 11.91-24.11 25.77-24.11h715.36c13.58 0 24.1 9.7 26.32 23.55v520.87L643.05 431.24c-7.76-8.87-20.22-15.52-33.52-15.52-12.74 0-24.93 5.54-33.52 14.96L468.5 547.05c-2.77 2.77-5.82 5.54-8.59 8.31-6.1 5.26-13.85 8.31-21.89 8.31-8.87 0-15.24-3.88-23-9.42l-37.4-31.58c-8.31-6.65-15.52-11.36-25.49-11.36-9.97 0.28-19.39 4.71-25.49 12.47L128 736.56z" p-id="6177" fill="#1296db"></path><path d="M284.54 255.87h3.6c52.92 1.11 95.31 44.61 94.2 97.8-0.83 51.54-42.67 93.37-94.2 94.2-52.92 0.83-96.69-41.28-97.8-94.2-1.11-53.19 41-96.97 94.2-97.8z" p-id="6178" fill="#1296db"></path></svg>