<?xml version="1.0" standalone="no"?><!DOCTYPE svg PUBLIC "-//W3C//DTD SVG 1.1//EN" "http://www.w3.org/Graphics/SVG/1.1/DTD/svg11.dtd"><svg t="1713016847070" class="icon" viewBox="0 0 1024 1024" version="1.1" xmlns="http://www.w3.org/2000/svg" p-id="7159" xmlns:xlink="http://www.w3.org/1999/xlink" width="64" height="64"><path d="M64 488.42h424.42V64H139.66C97.87 64 64 97.87 64 139.66v348.76zM226.15 154.4c13.9-13.9 30.59-20.86 50.06-20.86s36.15 6.95 50.06 20.86c13.9 13.9 20.86 30.73 20.86 50.48s-6.95 36.57-20.86 50.48c-13.9 13.91-30.59 20.86-50.06 20.86s-36.15-6.95-50.06-20.86c-13.91-13.9-20.86-30.73-20.86-50.48s6.95-36.58 20.86-50.48z m-92.61 228.61c0-12.79 6.39-24.62 19.19-35.46 12.79-10.85 30.17-19.47 52.15-25.86 21.97-6.4 45.75-9.59 71.34-9.59 25.58 0 49.36 3.2 71.34 9.59 21.97 6.4 39.35 15.02 52.15 25.86 12.79 10.85 19.19 22.67 19.19 35.46v35.88H133.54v-35.88zM139.66 960h348.76V535.58H64v348.76C64 926.13 97.87 960 139.66 960z m86.49-334.02c13.9-13.9 30.59-20.86 50.06-20.86s36.15 6.96 50.06 20.86c13.9 13.9 20.86 30.73 20.86 50.48 0 19.74-6.95 36.57-20.86 50.48-13.9 13.91-30.59 20.86-50.06 20.86s-36.15-6.95-50.06-20.86c-13.91-13.9-20.86-30.73-20.86-50.48 0-19.75 6.95-36.58 20.86-50.48z m-92.61 228.6c0-12.79 6.39-24.61 19.19-35.46 12.79-10.85 30.17-19.47 52.15-25.86s45.75-9.6 71.34-9.6c25.58 0 49.36 3.2 71.34 9.6 21.97 6.4 39.35 15.02 52.15 25.86 12.79 10.85 19.19 22.67 19.19 35.46v35.88H133.54v-35.88zM535.58 64v424.42H960V139.66C960 97.87 926.12 64 884.34 64H535.58z m162.15 90.4c13.91-13.9 30.59-20.86 50.06-20.86 19.47 0 36.16 6.95 50.06 20.86s20.86 30.73 20.86 50.48-6.95 36.57-20.86 50.48c-13.9 13.91-30.59 20.86-50.06 20.86-19.47 0-36.15-6.95-50.06-20.86-13.9-13.9-20.86-30.73-20.86-50.48s6.95-36.58 20.86-50.48z m192.73 264.48H605.12V383c0-12.79 6.4-24.62 19.19-35.46 12.79-10.85 30.18-19.47 52.15-25.86 21.97-6.4 45.75-9.59 71.33-9.59 25.59 0 49.37 3.2 71.34 9.59 21.97 6.4 39.35 15.02 52.15 25.86 12.79 10.85 19.19 22.67 19.19 35.46v35.88zM535.58 960h348.76c41.79 0 75.66-33.87 75.66-75.66V535.58H535.58V960z m162.15-334.02c13.91-13.9 30.59-20.86 50.06-20.86 19.47 0 36.16 6.96 50.06 20.86s20.86 30.73 20.86 50.48c0 19.74-6.95 36.57-20.86 50.48-13.9 13.91-30.59 20.86-50.06 20.86-19.47 0-36.15-6.95-50.06-20.86-13.9-13.9-20.86-30.73-20.86-50.48 0-19.75 6.95-36.58 20.86-50.48z m-92.61 228.6c0-12.79 6.4-24.61 19.19-35.46 12.79-10.85 30.18-19.47 52.15-25.86 21.97-6.4 45.75-9.6 71.33-9.6 25.59 0 49.37 3.2 71.34 9.6 21.97 6.4 39.35 15.02 52.15 25.86 12.79 10.85 19.19 22.67 19.19 35.46v35.88H605.12v-35.88z" p-id="7160" fill="#1296db"></path></svg>