<?xml version="1.0" standalone="no"?><!DOCTYPE svg PUBLIC "-//W3C//DTD SVG 1.1//EN" "http://www.w3.org/Graphics/SVG/1.1/DTD/svg11.dtd"><svg t="1712655994525" class="icon" viewBox="0 0 1024 1024" version="1.1" xmlns="http://www.w3.org/2000/svg" p-id="6097" xmlns:xlink="http://www.w3.org/1999/xlink" width="64" height="64"><path d="M674.04 471.97L389.99 634.01V308.02l284.05 163.95z m203.99 244.01H145.97V227.95h732.05v488.03z m0-570.01H145.97c-22.88 0-42.26 7.94-58.14 23.83C71.94 185.69 64 205.07 64 227.95v488.04c0 21.61 7.94 40.35 23.83 56.24s35.27 23.83 58.14 23.83h203.98v81.97h324.09v-81.97h203.98c22.88 0 42.26-7.94 58.14-23.83S960 737.59 960 715.98V227.95c0-22.88-7.94-42.26-23.83-58.14-15.89-15.89-35.27-23.84-58.14-23.84z" p-id="6098" fill="#1296db"></path></svg>