<?xml version="1.0" standalone="no"?><!DOCTYPE svg PUBLIC "-//W3C//DTD SVG 1.1//EN" "http://www.w3.org/Graphics/SVG/1.1/DTD/svg11.dtd"><svg t="1713182669059" class="icon" viewBox="0 0 1024 1024" version="1.1" xmlns="http://www.w3.org/2000/svg" p-id="6856" xmlns:xlink="http://www.w3.org/1999/xlink" width="64" height="64"><path d="M895.94 447.94C895.94 235.92 724.02 64 512 64S128.06 235.92 128.06 447.94c0 192.89 142.51 352.89 328 380.03l-3.91 68.07H256.18V960h512.06v-63.96H573.69l-3.91-68.07c184.68-27.96 326.16-187.34 326.16-380.03zM512 767.93c-176.85 0-319.99-143.13-319.99-319.99S335.14 127.95 512 127.95s319.99 143.13 319.99 319.99S688.85 767.93 512 767.93z m0-559.98c-132.85 0-239.99 107.14-239.99 239.99S379.15 687.93 512 687.93s239.99-107.14 239.99-239.99S644.85 207.95 512 207.95zM415.96 511.9c-52.85 0-96.04-43.19-96.04-96.03s43.19-96.03 96.04-96.03S512 363.01 512 415.86s-43.19 96.04-96.04 96.04z" p-id="6857" fill="#1296db"></path></svg>