<?xml version="1.0" standalone="no"?><!DOCTYPE svg PUBLIC "-//W3C//DTD SVG 1.1//EN" "http://www.w3.org/Graphics/SVG/1.1/DTD/svg11.dtd"><svg t="1717402070566" class="icon" viewBox="0 0 1024 1024" version="1.1" xmlns="http://www.w3.org/2000/svg" p-id="6336" xmlns:xlink="http://www.w3.org/1999/xlink" width="64" height="64"><path d="M959.414657 484.937403l21.285189 27.974819-21.285189 27.974819c-8.757335 11.676446-234.866849 247.029814-470.341846 247.029814-61.422972 0-119.318684-16.298373-171.497802-40.624302l41.718969-41.718969c35.394227 15.082076 74.072455 24.447559 115.913054 24.447559 169.551728 0 347.009384-152.158689 402.472502-216.744032-30.529041-35.394227-97.790236-97.303718-180.255137-145.833947l49.503267-49.503266c120.413351 69.328899 207.135289 160.064616 212.486993 166.997505zM866.854496 198.013066l-119.926832 119.926832c-17.39304-10.095261-35.515857-19.582373-54.125193-28.461338l132.697945-132.697945 41.35408 41.232451z" fill="#1296db" p-id="6337"></path><path d="M746.927664 317.818268L697.424397 367.321535c-17.39304-10.21689-35.394227-19.947262-54.003563-28.582967l49.381637-49.381637c18.730966 8.878964 36.732153 18.487706 54.125193 28.461337z" fill="#1296db" p-id="6338"></path><path d="M697.424397 367.321535l-112.993942 112.993942c-6.568001-19.217484-18.730966-35.880746-34.66445-47.922081l93.654829-93.654828c18.487706 8.757335 36.610524 18.366077 54.003563 28.582967z" fill="#1296db" p-id="6339"></path><path d="M133.670982 513.155482c34.42119 39.894524 92.316902 113.602091 171.619433 163.835134l-41.59734 41.59734C145.469058 646.948094 67.139565 544.77919 62.274379 538.211189L43.300154 513.155482l18.974225-25.055708C69.937047 477.882884 253.719444 238.394109 489.072811 238.394109c70.666825 0 140.482243 21.163559 203.851289 51.206081l-49.381637 49.381637c-53.760304-25.298967-111.534387-42.448747-168.335431-42.448747C305.776933 296.289821 189.255731 448.448509 133.670982 513.155482zM584.430455 480.315477c3.52726 10.33852 5.351704 21.406818 5.351704 32.840005 0 55.949638-45.124599 101.317496-100.709348 101.317496-11.554816 0-22.744744-1.946074-33.083264-5.594964l128.440908-128.562537z" fill="#1296db" p-id="6340"></path><path d="M584.430455 480.315477L455.867918 608.878014c-19.095855-6.689631-35.637487-18.974225-47.557192-35.029338l141.455279-141.45528c15.933484 12.041335 28.096449 28.704597 34.66445 47.922081z" fill="#1296db" p-id="6341"></path><path d="M549.766005 432.393396L408.310726 573.848676c-12.649483-16.906521-20.068892-37.82682-20.068892-60.571565 0-55.949638 45.246229-101.317496 100.709348-101.317496 22.866374 0 43.908303 7.662668 60.814823 20.433781zM455.867918 608.878014l-96.69557 96.69557c-18.974225-8.027557-36.975413-17.757928-54.003563-28.582968l103.020311-103.020311c12.041335 15.933484 28.582967 28.218078 47.678822 34.907709z" fill="#1296db" p-id="6342"></path><path d="M359.293978 705.573584l-41.718969 41.718969c-18.730966-8.635705-36.610524-18.366077-53.760304-28.826227l41.597339-41.597339c16.906521 10.825039 34.907709 20.55541 53.881934 28.704597z" fill="#1296db" p-id="6343"></path><path d="M317.453379 747.292553L197.648177 867.219385l-41.35408-41.35408 107.398978-107.398979c17.14978 10.46015 35.029338 20.190521 53.760304 28.826227z" fill="#1296db" p-id="6344"></path></svg>