<?xml version="1.0" standalone="no"?><!DOCTYPE svg PUBLIC "-//W3C//DTD SVG 1.1//EN" "http://www.w3.org/Graphics/SVG/1.1/DTD/svg11.dtd"><svg t="1713182208209" class="icon" viewBox="0 0 1024 1024" version="1.1" xmlns="http://www.w3.org/2000/svg" p-id="6598" xmlns:xlink="http://www.w3.org/1999/xlink" width="64" height="64"><path d="M165.67 353.68c-17.5 21.73-16.34 53.03 2.72 73.42l127.59 136.44-0.17 0.28 287.23 303.59a56.046 56.046 0 0 0 58.12-0.22l58.85-35.95-504.39-514.77-29.95 37.21zM281.03 588.81l-53.8 91.16h-51.14v-27.72c0-30.95-25.09-56.04-56.04-56.04-30.96 0-56.05 25.09-56.05 56.05v224.18c0 30.96 25.09 56.05 56.05 56.05 30.95 0 56.04-25.09 56.04-56.05v-85.75h85.19c4.26 0 8.41-0.47 12.39-1.4A55.91 55.91 0 0 0 310.04 763l52.2-88.38-81.18-85.81h-0.03zM943.29 600.92L442.78 107.64a55.507 55.507 0 0 0-4.21-3.75c-24.12-19.4-59.4-15.58-78.8 8.54L230.82 272.72l517.99 528.64 184.39-112.7c3.89-2.38 7.48-5.23 10.69-8.48 21.71-22.05 21.45-57.54-0.6-79.26z" p-id="6599" fill="#1296db"></path></svg>