<?xml version="1.0" standalone="no"?><!DOCTYPE svg PUBLIC "-//W3C//DTD SVG 1.1//EN" "http://www.w3.org/Graphics/SVG/1.1/DTD/svg11.dtd"><svg t="1713017950734" class="icon" viewBox="0 0 1024 1024" version="1.1" xmlns="http://www.w3.org/2000/svg" p-id="7770" xmlns:xlink="http://www.w3.org/1999/xlink" width="64" height="64"><path d="M855.41 921.46H168.59C110.91 921.46 64 874.55 64 816.88V207.12c0-57.68 46.91-104.59 104.59-104.59h686.83c57.68 0 104.59 46.91 104.59 104.59v609.75c-0.01 57.68-46.92 104.59-104.6 104.59zM168.59 202.09a5.04 5.04 0 0 0-5.03 5.03v609.75a5.04 5.04 0 0 0 5.03 5.03h686.83a5.04 5.04 0 0 0 5.03-5.03V207.12a5.04 5.04 0 0 0-5.03-5.03H168.59z" p-id="7771" fill="#1296db"></path><path d="M610.56 774.54H214.33c-0.55 0-1-0.45-1-1V451.98c0-0.55 0.45-1 1-1h396.22c0.55 0 1 0.45 1 1v321.56c0.01 0.55-0.44 1-0.99 1z" p-id="7772" fill="#1296db"></path><path d="M748.13 456.13v-49.77h-56.75l119.29-119.3-35.2-35.19-119.29 119.29v-56.75H606.4v141.72z" p-id="7773" fill="#1296db"></path></svg>