<?xml version="1.0" standalone="no"?><!DOCTYPE svg PUBLIC "-//W3C//DTD SVG 1.1//EN" "http://www.w3.org/Graphics/SVG/1.1/DTD/svg11.dtd"><svg t="1713021049353" class="icon" viewBox="0 0 1024 1024" version="1.1" xmlns="http://www.w3.org/2000/svg" p-id="3257" xmlns:xlink="http://www.w3.org/1999/xlink" width="64" height="64"><path d="M597.333333 874.666667c0 34.133333-42.666667 64-85.333333 64v-85.333334h64c12.8 0 21.333333 8.533333 21.333333 21.333334z m-149.333333-21.333334c-12.8 0-21.333333 8.533333-21.333333 21.333334 0 34.133333 42.666667 64 85.333333 64v-85.333334h-64z m366.933333-42.666666H512 209.066667c-46.933333 0-55.466667-59.733333-21.333334-85.333334 34.133333-25.6 38.4-85.333333 38.4-85.333333l29.866667-213.333333c29.866667-183.466667 149.333333-234.666667 213.333333-251.733334V128c0-25.6 17.066667-42.666667 42.666667-42.666667s42.666667 17.066667 42.666667 42.666667V174.933333c64 12.8 183.466667 64 213.333333 251.733334l25.6 213.333333s4.266667 59.733333 38.4 85.333333 25.6 85.333333-17.066667 85.333334z m-4.266666-42.666667c0-4.266667 0-4.266667-4.266667-8.533333-46.933333-34.133333-55.466667-102.4-55.466667-115.2l-25.6-213.333334c-34.133333-213.333333-204.8-217.6-213.333333-217.6-8.533333 0-179.2 4.266667-213.333333 221.866667l-25.6 213.333333c0 12.8-8.533333 81.066667-55.466667 115.2-4.266667 0-4.266667 0-4.266667 4.266667h597.333334zM439.466667 302.933333c-12.8 4.266667-98.133333 55.466667-98.133334 358.4 0 12.8 8.533333 21.333333 21.333334 21.333334s21.333333-8.533333 21.333333-21.333334c0-273.066667 72.533333-320 72.533333-324.266666 8.533333-4.266667 12.8-17.066667 8.533334-29.866667-4.266667-8.533333-17.066667-12.8-25.6-4.266667z" fill="#d81e06" p-id="3258"></path></svg>