<?xml version="1.0" standalone="no"?><!DOCTYPE svg PUBLIC "-//W3C//DTD SVG 1.1//EN" "http://www.w3.org/Graphics/SVG/1.1/DTD/svg11.dtd"><svg t="1713020960064" class="icon" viewBox="0 0 1024 1024" version="1.1" xmlns="http://www.w3.org/2000/svg" p-id="2789" xmlns:xlink="http://www.w3.org/1999/xlink" width="64" height="64"><path d="M887.466667 750.933333L601.6 183.466667c-38.4-72.533333-140.8-72.533333-174.933333 0L136.533333 750.933333c-29.866667 68.266667 17.066667 145.066667 89.6 145.066667h571.733334c72.533333 0 119.466667-76.8 89.6-145.066667z m-345.6 4.266667c-8.533333 8.533333-17.066667 12.8-29.866667 12.8-12.8 0-21.333333-4.266667-29.866667-12.8-8.533333-8.533333-12.8-17.066667-12.8-29.866667s4.266667-21.333333 12.8-29.866666 17.066667-12.8 29.866667-12.8c12.8 0 21.333333 4.266667 29.866667 12.8 8.533333 8.533333 12.8 17.066667 12.8 29.866666 0 12.8-4.266667 21.333333-12.8 29.866667zM554.666667 640h-85.333334V341.333333h85.333334v298.666667z" fill="#d81e06" p-id="2790"></path></svg>