<?xml version="1.0" standalone="no"?><!DOCTYPE svg PUBLIC "-//W3C//DTD SVG 1.1//EN" "http://www.w3.org/Graphics/SVG/1.1/DTD/svg11.dtd"><svg t="1713021011586" class="icon" viewBox="0 0 1024 1024" version="1.1" xmlns="http://www.w3.org/2000/svg" p-id="3047" xmlns:xlink="http://www.w3.org/1999/xlink" width="64" height="64"><path d="M512 85.333333C277.333333 85.333333 85.333333 277.333333 85.333333 512s192 426.666667 426.666667 426.666667 426.666667-192 426.666667-426.666667S746.666667 85.333333 512 85.333333z m0 810.666667c-213.333333 0-384-170.666667-384-384s170.666667-384 384-384 384 170.666667 384 384-170.666667 384-384 384z m72.533333-554.666667l-25.6 170.666667c-4.266667 25.6-25.6 42.666667-46.933333 42.666667-21.333333 0-46.933333-17.066667-46.933333-42.666667l-25.6-170.666667c-4.266667-42.666667 29.866667-85.333333 72.533333-85.333333s81.066667 38.4 72.533333 85.333333z m-25.6 273.066667c12.8 12.8 17.066667 25.6 17.066667 46.933333 0 17.066667-4.266667 34.133333-17.066667 46.933334-12.8 12.8-29.866667 17.066667-46.933333 17.066666s-34.133333-4.266667-46.933333-17.066666-17.066667-25.6-17.066667-46.933334c0-17.066667 4.266667-34.133333 17.066667-46.933333 12.8-12.8 25.6-17.066667 46.933333-17.066667s34.133333 4.266667 46.933333 17.066667z" fill="#f4ea2a" p-id="3048"></path></svg>