<?xml version="1.0" standalone="no"?><!DOCTYPE svg PUBLIC "-//W3C//DTD SVG 1.1//EN" "http://www.w3.org/Graphics/SVG/1.1/DTD/svg11.dtd"><svg t="1713020729524" class="icon" viewBox="0 0 1024 1024" version="1.1" xmlns="http://www.w3.org/2000/svg" p-id="1469" xmlns:xlink="http://www.w3.org/1999/xlink" width="64" height="64"><path d="M640 426.666667c0 72.533333-55.466667 128-128 128s-128-55.466667-128-128 55.466667-128 128-128 128 55.466667 128 128z m213.333333 0c0 85.333333-29.866667 166.4-85.333333 226.133333L512 938.666667l-256-285.866667C200.533333 593.066667 170.666667 512 170.666667 426.666667c0-187.733333 153.6-341.333333 341.333333-341.333334s341.333333 153.6 341.333333 341.333334z m-115.2 196.266666C785.066667 567.466667 810.666667 499.2 810.666667 426.666667c0-166.4-132.266667-298.666667-298.666667-298.666667S213.333333 260.266667 213.333333 426.666667c0 72.533333 25.6 140.8 72.533334 196.266666 8.533333 8.533333 21.333333 25.6 42.666666 42.666667l85.333334 102.4 98.133333 106.666667 98.133333-106.666667 89.6-98.133333c12.8-21.333333 25.6-34.133333 38.4-46.933334z" fill="#d81e06" p-id="1470"></path></svg>