<?xml version="1.0" standalone="no"?><!DOCTYPE svg PUBLIC "-//W3C//DTD SVG 1.1//EN" "http://www.w3.org/Graphics/SVG/1.1/DTD/svg11.dtd"><svg t="1713018357831" class="icon" viewBox="0 0 1024 1024" version="1.1" xmlns="http://www.w3.org/2000/svg" p-id="2380" xmlns:xlink="http://www.w3.org/1999/xlink" width="64" height="64"><path d="M512 119.87809245c10.23870874 0 18.96459937 3.60900903 26.22216797 10.81713891 7.23284888 7.20812988 10.87152099 15.96862769 10.87152099 26.2666626v296.5715332h296.59130884c10.26342773 0 18.99426246 3.70788575 26.21722388 10.91601563 7.2822876 7.21307397 10.88635254 15.96862769 10.88635254 26.16778516 0 10.29803491-3.60900903 18.94976782-10.88635254 26.2666626-7.21801734 7.20812988-15.95379615 10.81713891-26.21722388 10.81713891H549.09368896v296.67040992c0 10.30297828-3.63867211 18.95471191-10.87152099 26.1628418C530.96459937 857.85117594 522.23870874 861.45524089 512 861.45524089s-18.95471191-3.60900903-26.22216797-10.92095971c-7.23284888-7.20812988-10.87152099-15.85986352-10.87152099-26.1628418V527.70102946H178.3150022c-10.24859619 0-18.984375-3.60900903-26.20239233-10.81713891C144.83032227 509.5669965 141.21142578 500.91526286 141.21142578 490.61722795c0-10.19915748 3.62384057-18.95471191 10.89624-26.16778516 7.21801734-7.20812988 15.95874023-10.91601563 26.20239305-10.91601563h296.59625221V156.95694987c0-10.30297828 3.63867211-19.05853271 10.87152099-26.2666626C493.04528809 123.4821574 501.76129126 119.87809245 512 119.87809245" p-id="2381" fill="#1296db"></path></svg>