<?xml version="1.0" standalone="no"?><!DOCTYPE svg PUBLIC "-//W3C//DTD SVG 1.1//EN" "http://www.w3.org/Graphics/SVG/1.1/DTD/svg11.dtd"><svg t="1713018382687" class="icon" viewBox="0 0 1024 1024" version="1.1" xmlns="http://www.w3.org/2000/svg" p-id="2590" xmlns:xlink="http://www.w3.org/1999/xlink" width="64" height="64"><path d="M444.60344607 141.31030177h134.80793941c9.31414671 0 17.24402596 3.19864819 23.85390585 9.88762989 6.56538599 6.49122901 9.86785426 14.52492761 9.86785426 23.78963633 0 9.2696528-3.30246827 17.20447542-9.86785426 23.78963633-6.6098799 6.69392507-14.53975915 9.88762917-23.85390585 9.88762915H444.60344607c-9.29931517 0-17.26380087-3.1937041-23.82424277-9.88762915-6.61482398-6.59010498-9.88762917-14.51998353-9.8876299-23.78963633 0-9.26470871 3.27280519-17.30335141 9.8876299-23.78469297 6.56044191-6.69392507 14.52492761-9.88762917 23.82424277-9.88762916z m404.46831211 269.50711463c9.29931517 0 17.24402596 3.39640089 23.82424278 9.88762918 6.6098799 6.59010498 9.88762917 14.51998353 9.88762917 23.88851303v134.80793942c0 9.26470871-3.27774927 17.19458725-9.88762917 23.78469222-6.58021754 6.59504907-14.52492761 9.88762917-23.82918686 9.88762917-9.3190908 0-17.25885679-3.29258081-23.82918686-9.88762917-6.61482398-6.59010498-9.89751734-14.51998353-9.89751663-23.78469222V444.59355861c0-9.36852878 3.28269263-17.29840732 9.89751663-23.88851303 6.57033009-6.49122901 14.51009607-9.88762917 23.82918686-9.88762918zM377.20936382 478.27082411h269.65048526c9.29437179 0 17.22919442 3.29752417 23.84401841 9.88762917 6.57033009 6.59010498 9.87774172 14.51998353 9.87774171 23.78963632 0 9.36852878-3.30741236 17.30335141-9.87774171 23.88851304-6.61482398 6.59010498-14.54470252 9.88762917-23.84401841 9.88762917H377.20936382c-9.29931517 0-17.26380087-3.29752417-23.81435532-9.88762917-6.62471144-6.59010498-9.89751734-14.51998353-9.89751662-23.88851304 0-9.2696528 3.27280519-17.20447542 9.89751662-23.78963632 6.55055444-6.59010498 14.51504016-9.88762917 23.81435532-9.88762917z m471.86239436 202.15258293c9.29931517 0 17.24402596 3.29752417 23.82424278 9.88762989 6.6098799 6.59010498 9.88762917 14.51998353 9.88762917 23.8934564v67.34958763c0 27.90783367-9.86785426 51.79634669-29.6233377 71.46778495-19.74559598 19.77525907-43.55500721 29.66288824-71.49250395 29.66288823H714.24898724c-9.31414671 0-17.22425033-3.29752417-23.84896177-9.88762916-6.56044191-6.59504907-9.87774172-14.52492761-9.87774172-23.78963632 0-9.37347288 3.31729981-17.30335141 9.87774172-23.89345641 6.62471144-6.59010498 14.53481506-9.88762917 23.84896176-9.8876299h67.41385717c9.3190908 0 17.25391343-3.29258081 23.82918685-9.88762916 6.61482398-6.59010498 9.90246071-14.51998353 9.90246072-23.78469223V714.10067325c0-9.2696528 3.27774927-17.19953134 9.88762989-23.78963632 6.57527345-6.59010498 14.52492761-9.88762917 23.82918687-9.88762989h-0.04943872zM242.36187461 141.31524585H309.79550667c9.29931517 0 17.22919442 3.1937041 23.85390585 9.88762918 6.55055444 6.48628492 9.86785426 14.51998353 9.86785426 23.78469296 0 9.2696528-3.31235572 17.20447542-9.86785426 23.78963633-6.62471144 6.69392507-14.55459069 9.88762917-23.85390585 9.88762916H242.37176206c-9.30425926 0-17.25391343 3.29752417-23.81435533 9.88762917-6.62471144 6.59010498-9.90246071 14.51998353-9.9024607 23.88851303V309.79550667c0 9.37347288-3.28269263 17.30335141-9.89751736 23.8934564-6.57033009 6.48628492-14.51009607 9.88762917-23.82424277 9.88762989-9.29931517 0-17.25391343-3.40134426-23.81435531-9.88762989C144.49411842 327.09885807 141.21142578 319.16403618 141.21142578 309.79550667V242.44097568C141.21142578 214.53314129 151.07928004 190.74844906 170.83476348 170.97319c19.74559598-19.77525907 43.55500721-29.66288824 71.49250466-29.66288823h0.04449391z m202.23662737 673.9111565h134.8079394c9.31414671 0 17.24402596 3.29752417 23.85390587 9.88762989 6.56538599 6.59010498 9.86785426 14.51998353 9.86785426 23.89345641 0 9.26470871-3.30246827 17.19458725-9.86785426 23.78469224-6.6098799 6.59504907-14.53975915 9.88762917-23.85390587 9.88762915H444.60344607c-9.29931517 0-17.26380087-3.29258081-23.82424277-9.88762915-6.61482398-6.59010498-9.88762917-14.51998353-9.8876299-23.78469224 0-9.37347288 3.27280519-17.30335141 9.8876299-23.89345641 6.56044191-6.59010498 14.52492761-9.88762917 23.82424277-9.88762989zM174.97767981 410.8223605c9.30920334 0 17.25885679 3.3914568 23.82424349 9.88268508 6.6098799 6.59010498 9.89751734 14.51998353 9.89751664 23.88851303v134.80793942c0 9.26470871-3.28763673 17.19458725-9.89751664 23.78469223-6.56538599 6.59504907-14.51504016 9.88762917-23.82918685 9.88762916-9.29437179 0-17.25391343-3.29258081-23.80941196-9.88762916C144.53861305 596.59608526 141.26086377 588.66620673 141.26086377 579.40149802V444.59355861c0-9.36852878 3.27774927-17.29840732 9.90246072-23.88851303 6.56044191-6.49122901 14.51009607-9.88762917 23.81435532-9.88762918z m0 269.60104654c9.30920334 0 17.25885679 3.29752417 23.82424349 9.88762989 6.6098799 6.59010498 9.89751734 14.51998353 9.89751664 23.8934564v67.34958763c0 9.36852878 3.28269263 17.30335141 9.90740479 23.88851231 6.56044191 6.59010498 14.51504016 9.88762917 23.81435533 9.88762917h67.41385715c9.31414671 0 17.26380087 3.29752417 23.84401841 9.88762989 6.57527345 6.59010498 9.87774172 14.51998353 9.87774171 23.78963633 0 9.26470871-3.30246827 17.19458725-9.87774171 23.8885123-6.58021754 6.49122901-14.53481506 9.88762917-23.84401841 9.88762917H242.42120006c-27.92266521 0-51.71724562-9.88762917-71.4875606-29.66288823C151.18804348 833.35537102 141.31030177 809.5657347 141.31030177 781.6628444V714.19954925c0-9.2696528 3.29258081-17.20447542 9.9074048-23.78963633 6.56044191-6.59010498 14.52492761-9.88762917 23.8242435-9.88762916l-0.05932618-0.09887672zM714.24898724 141.31524585h67.41880124c27.93255338 0 51.74690871 9.78380909 71.49250395 29.55412408C872.91577659 190.64957307 882.78363013 214.42932121 882.78363013 242.3371556V309.79550667c0 9.2696528-3.27774927 17.20447542-9.88762917 23.78963631-6.58021754 6.59010498-14.52492761 9.88762917-23.82918686 9.88762989-9.3190908 0-17.25885679-3.29752417-23.82918686-9.88762989-6.61482398-6.59010498-9.89751734-14.51998353-9.89751663-23.78963631V242.3371556c0-9.26470871-3.27774927-17.19458725-9.90246143-23.78469295-6.55055444-6.59010498-14.51009607-9.88762917-23.81435533-9.88762918h-67.41385715c-9.30920334 0-17.26380087-3.29752417-23.86379331-9.88762915-6.55055444-6.59010498-9.86785426-14.51998353-9.86785426-23.88851305 0-9.2696528 3.31235572-17.20447542 9.86785426-23.78963633 6.59999243-6.59010498 14.55459069-9.88762917 23.86379331-9.88762916l0.04449463 0.09887599z" p-id="2591" fill="#1296db"></path></svg>