<?xml version="1.0" standalone="no"?><!DOCTYPE svg PUBLIC "-//W3C//DTD SVG 1.1//EN" "http://www.w3.org/Graphics/SVG/1.1/DTD/svg11.dtd"><svg t="1713172045991" class="icon" viewBox="0 0 1024 1024" version="1.1" xmlns="http://www.w3.org/2000/svg" p-id="4466" xmlns:xlink="http://www.w3.org/1999/xlink" width="64" height="64"><path d="M512 236c33.33 0 66 6.33 98 19s60 31 84 55 42.33 51.67 55 83c12.67 31.33 19 64.34 19 99v340H256V492c0-34.67 6.33-67.67 19-99s31-59 55-83 52-42.33 84-55c32-12.67 64.67-19 98-19zM256 876h512c24 0 44.33 8.33 61 25s25 36.33 25 59H170c0-22.67 8.33-42.33 25-59s37-25 61-25z m576-406h128v86H832v-86z m-640 0v86H64v-86h128z m666-244l-90 90-60-60 90-90 60 60zM554 64v128h-84V64h84zM256 316l-90-90 60-60 90 90-60 60z" p-id="4467" fill="#d81e06"></path></svg>