<?xml version="1.0" standalone="no"?><!DOCTYPE svg PUBLIC "-//W3C//DTD SVG 1.1//EN" "http://www.w3.org/Graphics/SVG/1.1/DTD/svg11.dtd"><svg t="1711698587337" class="icon" viewBox="0 0 1024 1024" version="1.1" xmlns="http://www.w3.org/2000/svg" p-id="1601" xmlns:xlink="http://www.w3.org/1999/xlink" width="200" height="200"><path d="M987.75 347.57a20 20 0 0 0-37-15.14C880.22 505 710.29 618.24 517.8 621c-104.8 1.56-203.57-30.28-284.24-87.59a20.45 20.45 0 0 0-2.82-2.39 19.6 19.6 0 0 0-2.61-1.51A468.38 468.38 0 0 1 72.68 332.26a20 20 0 0 0-36.89 15.48 506.5 506.5 0 0 0 156.09 204.13l-94.3 135.66a20 20 0 0 0 32.84 22.83l94-135.15c1.6 1.06 3.19 2.12 4.8 3.16A516.73 516.73 0 0 0 493 660.79v154.15a20 20 0 0 0 40 0V660.61c96.44-4 188.7-33.4 267.66-85.5l0.15-0.1 94.09 135.35a20 20 0 0 0 32.84-22.83l-94.45-135.88a496.22 496.22 0 0 0 154.46-204.08z" fill="#4589FF" p-id="1602"></path></svg>