<?xml version="1.0" standalone="no"?><!DOCTYPE svg PUBLIC "-//W3C//DTD SVG 1.1//EN" "http://www.w3.org/Graphics/SVG/1.1/DTD/svg11.dtd"><svg t="1711698544768" class="icon" viewBox="0 0 1024 1024" version="1.1" xmlns="http://www.w3.org/2000/svg" p-id="1434" xmlns:xlink="http://www.w3.org/1999/xlink" width="200" height="200"><path d="M986.75 572.38a496.19 496.19 0 0 0-154.46-204.09l94.45-135.87a20 20 0 0 0-32.84-22.84l-94.09 135.35-0.15-0.1c-79-52.1-171.22-81.51-267.66-85.5V105a20 20 0 0 0-40 0v154.15a516.6 516.6 0 0 0-263.83 82.42c-2.07 1.34-4.12 2.7-6.17 4.07l-94.58-136.06a20 20 0 1 0-32.84 22.84l95 136.66A506.53 506.53 0 0 0 34.79 572.2a20 20 0 0 0 0 15.48 509.08 509.08 0 0 0 193.35 231 516 516 0 0 0 281.55 83.14q3.84 0 7.7-0.05c101.64-1.49 199.26-31.35 282.3-86.35a498.74 498.74 0 0 0 187.06-227.91 20 20 0 0 0 0-15.13zM516.8 861.78C324.26 864.6 151.77 754.24 75 579.94c76.58-173.82 249.05-283.86 441.8-281 189.66 2.76 357.42 112.79 429.75 281C874 748.68 706.27 859 516.8 861.78z" fill="#4589FF" p-id="1435"></path><path d="M510.73 371.66c-115.06 0-208.68 93.61-208.68 208.68S395.67 789 510.73 789s208.69-93.61 208.69-208.68-93.62-208.66-208.69-208.66z m0 377.36c-93 0-168.68-75.67-168.68-168.68s75.67-168.68 168.68-168.68 168.69 75.67 168.69 168.68S603.74 749 510.73 749z" fill="#4589FF" p-id="1436"></path></svg>