<?xml version="1.0" standalone="no"?><!DOCTYPE svg PUBLIC "-//W3C//DTD SVG 1.1//EN" "http://www.w3.org/Graphics/SVG/1.1/DTD/svg11.dtd"><svg t="1711697879234" class="icon" viewBox="0 0 1024 1024" version="1.1" xmlns="http://www.w3.org/2000/svg" p-id="1940" xmlns:xlink="http://www.w3.org/1999/xlink" width="200" height="200"><path d="M510.08 174.4l8.32 4.544 8.192 5.248 7.936 5.696 332.864 255.168c19.712 17.664 29.184 40 28.608 66.944-0.64 26.944-10.24 47.616-28.8 61.888l-354.688 269.44-7.04 4.224c-24.32 13.44-56.32 18.56-57.472-44.16l0.256-154.24-255.744 194.176-7.04 4.224c-24.32 13.44-56.32 18.56-57.472-44.16l0.832-549.696c0.128-89.088 30.72-94.272 61.248-79.296l8.32 4.544 8.192 5.248 7.936 5.696 234.24 179.584V253.696c0.192-89.088 30.72-94.272 61.312-79.296z" fill="#1296db" p-id="1941"></path></svg>