<?xml version="1.0" standalone="no"?><!DOCTYPE svg PUBLIC "-//W3C//DTD SVG 1.1//EN" "http://www.w3.org/Graphics/SVG/1.1/DTD/svg11.dtd"><svg t="1711697574342" class="icon" viewBox="0 0 1024 1024" version="1.1" xmlns="http://www.w3.org/2000/svg" p-id="5920" xmlns:xlink="http://www.w3.org/1999/xlink" width="200" height="200"><path d="M672 0a64 64 0 0 1 64 64v81.856a64 64 0 0 1-43.776 60.736L640 224l32 288 108.544 21.696A64 64 0 0 1 832 596.48V704a64 64 0 0 1-64 64h-224v192a32 32 0 0 1-64 0v-192H256a64 64 0 0 1-64-64v-107.52a64 64 0 0 1 51.456-62.784L352 512l32-288-52.224-17.408A64 64 0 0 1 288 145.856V64a64 64 0 0 1 64-64h320z m0 64H352v81.856l101.312 33.792-42.88 385.92L256 596.48V704h512v-107.52l-154.432-30.912-42.88-385.92L672 145.856V64z" fill="#1296db" p-id="5921"></path></svg>