<?xml version="1.0" standalone="no"?><!DOCTYPE svg PUBLIC "-//W3C//DTD SVG 1.1//EN" "http://www.w3.org/Graphics/SVG/1.1/DTD/svg11.dtd"><svg t="1711697520354" class="icon" viewBox="0 0 1024 1024" version="1.1" xmlns="http://www.w3.org/2000/svg" p-id="5590" xmlns:xlink="http://www.w3.org/1999/xlink" width="200" height="200"><path d="M973.472 274.016a63.232 63.232 0 0 1 0 89.408l-57.184 57.184c-19.2 19.232-48.64 24-72.96 11.84l-48.64-24.32-178.816 223.488 60.672 91.008a63.232 63.232 0 0 1-7.904 79.744l-75.104 75.104a63.232 63.232 0 0 1-89.408 0l-156.48-156.448-134.08 134.08a31.616 31.616 0 0 1-44.704-44.672l134.08-134.08-156.416-156.48a63.232 63.232 0 0 1 0-89.408l75.104-75.104a63.232 63.232 0 0 1 79.744-7.904l91.008 60.672 223.488-178.816-24.32-48.64c-12.16-24.32-7.392-53.76 11.84-72.96l57.184-57.184a63.232 63.232 0 0 1 89.408 0l223.488 223.488zM928.768 318.72L705.28 95.232l-57.184 57.184 47.168 94.336-299.52 239.616-129.408-86.304-75.104 75.104L548.8 832.768l75.104-75.104-86.304-129.44 239.616-299.52 94.336 47.2 57.184-57.184z" fill="#1296db" p-id="5591"></path></svg>