<?xml version="1.0" standalone="no"?><!DOCTYPE svg PUBLIC "-//W3C//DTD SVG 1.1//EN" "http://www.w3.org/Graphics/SVG/1.1/DTD/svg11.dtd"><svg t="1711694569883" class="icon" viewBox="0 0 1024 1024" version="1.1" xmlns="http://www.w3.org/2000/svg" p-id="2115" xmlns:xlink="http://www.w3.org/1999/xlink" width="200" height="200"><path d="M381.184 128c13.248 0 26.432 3.584 29.248 16.384l0.512 5.312v21.632c-1.92 17.152-10.496 20.928-24.32 21.568l-5.44 0.128H239.616l171.52 168.064a32 32 0 0 1 0.704 48.576l-0.896 1.472h-1.28a31.872 31.872 0 0 1-36.48 1.344l-2.88-1.92-177.472-166.784v143.744c0 15.296-3.584 23.744-16.384 25.472l-5.248 0.32h-21.568c-15.168 0-20.48-6.784-21.44-20.352L128 387.52V160.192c0-8.576 2.112-17.152 6.4-21.44a33.28 33.28 0 0 1 16.384-10.24L155.648 128h225.536zM642.816 128c-13.248 0-26.432 3.584-29.248 16.384l-0.512 5.312v21.632c1.92 17.152 10.496 20.928 24.32 21.568l5.44 0.128h141.568l-171.52 168.064a32 32 0 0 0-0.704 48.576l0.896 1.472h1.28a31.872 31.872 0 0 0 36.48 1.344l2.88-1.92 177.472-166.784v143.744c0 15.296 3.584 23.744 16.384 25.472l5.248 0.32h21.568c15.168 0 20.48-6.784 21.44-20.352L896 387.52V160.192c0-8.576-2.112-17.152-6.4-21.44a33.28 33.28 0 0 0-16.384-10.24L868.352 128h-225.536z" fill="#1296db" p-id="2116"></path><path d="M381.184 896c13.248 0 26.432-3.584 29.248-16.384l0.512-5.312v-21.632c-1.92-17.152-10.496-20.928-24.32-21.568l-5.44-0.128H239.616l171.52-168.064a32 32 0 0 0 0.704-48.576l-0.896-1.472h-1.28a31.872 31.872 0 0 0-36.48-1.344l-2.88 1.92-177.472 166.784V636.48c0-15.296-3.584-23.744-16.384-25.472l-5.248-0.32h-21.568c-15.168 0-20.48 6.784-21.44 20.352L128 636.48v227.328c0 8.576 2.112 17.152 6.4 21.44 5.12 5.12 10.24 8.96 16.384 10.24l4.864 0.512h225.536zM642.816 896c-13.248 0-26.432-3.584-29.248-16.384l-0.512-5.312v-21.632c1.92-17.152 10.496-20.928 24.32-21.568l5.44-0.128h141.568l-171.52-168.064a32 32 0 0 1-0.704-48.576l0.896-1.472h1.28a31.872 31.872 0 0 1 36.48-1.344l2.88 1.92 177.472 166.784V636.48c0-15.296 3.584-23.744 16.384-25.472l5.248-0.32h21.568c15.168 0 20.48 6.784 21.44 20.352l0.192 5.44v227.328c0 8.576-2.112 17.152-6.4 21.44a33.28 33.28 0 0 1-16.384 10.24l-4.864 0.512h-225.536z" fill="#1296db" p-id="2117"></path></svg>