<?xml version="1.0" standalone="no"?><!DOCTYPE svg PUBLIC "-//W3C//DTD SVG 1.1//EN" "http://www.w3.org/Graphics/SVG/1.1/DTD/svg11.dtd"><svg t="1711694589033" class="icon" viewBox="0 0 1024 1024" version="1.1" xmlns="http://www.w3.org/2000/svg" p-id="2334" xmlns:xlink="http://www.w3.org/1999/xlink" width="200" height="200"><path d="M852.288 891.52H167.36A39.36 39.36 0 0 1 128 852.16V331.008c0-10.752 4.352-20.992 12.16-28.352l83.456-80.128 86.848-83.456a39.296 39.296 0 0 1 27.264-11.008L852.288 128c21.76 0 39.36 17.664 39.36 39.36v684.928a39.36 39.36 0 0 1-39.36 39.168zM193.28 832.128L833.408 832V192.448l-479.808 0.064-79.488 76.16L193.28 347.648v484.48z" fill="#1296db" p-id="2335"></path><path d="M512 320.96c14.464 0 28.928 10.624 31.68 29.568l0.448 6.592v123.648h123.712c23.04 0 36.16 16.128 36.16 32.192 0 14.4-10.624 28.928-29.568 31.68l-6.592 0.448-123.712-0.064v123.776c0 23.04-16.064 36.16-32.128 36.16-16 0-32.128-13.184-32.128-36.16l-0.064-123.776-123.648 0.064c-23.04 0-36.16-16.064-36.16-32.128 0-16 13.12-32.192 36.16-32.192h123.648V357.12c0-23.04 16.128-36.16 32.192-36.16z" fill="#1296db" p-id="2336"></path></svg>