<?xml version="1.0" standalone="no"?><!DOCTYPE svg PUBLIC "-//W3C//DTD SVG 1.1//EN" "http://www.w3.org/Graphics/SVG/1.1/DTD/svg11.dtd"><svg t="1711699087090" class="icon" viewBox="0 0 1024 1024" version="1.1" xmlns="http://www.w3.org/2000/svg" p-id="4255" xmlns:xlink="http://www.w3.org/1999/xlink" width="200" height="200"><path d="M653.28896 716.672m-66.261333 0a66.261333 66.261333 0 1 0 132.522666 0 66.261333 66.261333 0 1 0-132.522666 0Z" fill="#1296db" p-id="4256"></path><path d="M937.19296 525.098667v125.354666h-211.712a97.578667 97.578667 0 0 1 12.885333 114.901334h198.784V921.6H1024.019627v-396.501333h-86.826667zM533.694293 529.450667l211.968-201.429334a34.688 34.688 0 0 0 1.237334-49.066666l-157.44-165.76a34.688 34.688 0 0 0-49.066667-1.237334L55.742293 572.416a34.688 34.688 0 0 0-1.28 49.066667l157.482667 165.76a34.688 34.688 0 0 0 49.066667 1.237333l220.074666-209.109333 81.962667 98.773333a98.218667 98.218667 0 0 1 51.285333-51.498667l-80.64-97.194666zM10.08896 694.229333c-10.794667 20.352-15.274667 36.906667-1.450667 51.541334l81.365334 86.101333c13.824 14.634667 31.445333 11.050667 51.498666 1.450667l49.365334-22.954667-155.093334-164.096-25.685333 47.957333z" fill="#1296db" p-id="4257"></path></svg>