<?xml version="1.0" standalone="no"?><!DOCTYPE svg PUBLIC "-//W3C//DTD SVG 1.1//EN" "http://www.w3.org/Graphics/SVG/1.1/DTD/svg11.dtd"><svg t="1709811149757" class="icon" viewBox="0 0 1027 1024" version="1.1" xmlns="http://www.w3.org/2000/svg" p-id="18624" xmlns:xlink="http://www.w3.org/1999/xlink" width="200.5859375" height="200"><path d="M768 896h-64l-32-224H352l-32 224H256c-16 0-32 16-32 32s16 32 32 32h512c16 0 32-16 32-32s-16-32-32-32z" fill="#3D05C9" p-id="18625"></path><path d="M918.4 704H105.6C48 704 0 656 0 598.4V105.6C0 48 48 0 105.6 0h812.8C976 0 1024 48 1024 105.6v492.8c0 57.6-48 105.6-105.6 105.6z" fill="#5300F2" p-id="18626"></path><path d="M876.8 576H147.2C102.4 576 64 537.6 64 492.8V147.2C64 102.4 102.4 64 147.2 64h726.4C921.6 64 960 102.4 960 147.2v342.4c0 48-38.4 86.4-83.2 86.4z" fill="#FFFFFF" p-id="18627"></path><path d="M512 640m-32 0a32 32 0 1 0 64 0 32 32 0 1 0-64 0Z" fill="#FFFFFF" p-id="18628"></path><path d="M192 480V128H160v384h704v-32z" fill="#863DF9" p-id="18629"></path><path d="M403.2 259.2l144 96h128l182.4-169.6-22.4-25.6-172.8 160h-105.6l-153.6-102.4-185.6 172.8 19.2 25.6zM985.6 1024H614.4c-19.2 0-38.4-16-38.4-38.4V614.4c0-19.2 16-38.4 38.4-38.4h374.4c19.2 0 38.4 16 38.4 38.4v374.4c-3.2 19.2-19.2 35.2-41.6 35.2z" fill="#863DF9" p-id="18630"></path><path d="M960 992H640c-19.2 0-32-16-32-32V640c0-19.2 16-32 32-32h320c19.2 0 32 16 32 32v320c0 16-16 32-32 32z" fill="#FFFFFF" p-id="18631"></path><path d="M800 640c-89.6 0-160 70.4-160 160s70.4 160 160 160 160-70.4 160-160h-160v-160z" fill="#33E2CD" p-id="18632"></path><path d="M832 640v128h128c0-70.4-57.6-128-128-128z" fill="#33E2CD" p-id="18633"></path></svg>