<?xml version="1.0" standalone="no"?><!DOCTYPE svg PUBLIC "-//W3C//DTD SVG 1.1//EN" "http://www.w3.org/Graphics/SVG/1.1/DTD/svg11.dtd"><svg t="1709811198529" class="icon" viewBox="0 0 1024 1024" version="1.1" xmlns="http://www.w3.org/2000/svg" p-id="20693" xmlns:xlink="http://www.w3.org/1999/xlink" width="200" height="200"><path d="M0 0m0 0l1024 0q0 0 0 0l0 1024q0 0 0 0l-1024 0q0 0 0 0l0-1024q0 0 0 0Z" fill="#E8EFF8" p-id="20694"></path><path d="M209.454545 558.545455a23.272727 23.272727 0 0 1 23.272728-23.272728h209.454545a23.272727 23.272727 0 0 1 23.272727 23.272728v209.454545a23.272727 23.272727 0 0 1-23.272727 23.272727h-209.454545a23.272727 23.272727 0 0 1-23.272728-23.272727v-209.454545z" fill="#247ADE" p-id="20695"></path><path d="M465.454545 232.727273a23.272727 23.272727 0 0 0-23.272727-23.272728h-209.454545a23.272727 23.272727 0 0 0-23.272728 23.272728v209.454545a23.272727 23.272727 0 0 0 23.272728 23.272727h209.454545a23.272727 23.272727 0 0 0 23.272727-23.272727v-209.454545zM791.272727 558.545455a23.272727 23.272727 0 0 0-23.272727-23.272728h-209.454545a23.272727 23.272727 0 0 0-23.272728 23.272728v209.454545a23.272727 23.272727 0 0 0 23.272728 23.272727h209.454545a23.272727 23.272727 0 0 0 23.272727-23.272727v-209.454545z" fill="#A0BFF7" p-id="20696"></path><path d="M663.272727 465.454545a128 128 0 1 0 0-256 128 128 0 0 0 0 256z" fill="#69CB91" p-id="20697"></path></svg>