<?xml version="1.0" standalone="no"?><!DOCTYPE svg PUBLIC "-//W3C//DTD SVG 1.1//EN" "http://www.w3.org/Graphics/SVG/1.1/DTD/svg11.dtd"><svg t="1710500669705" class="icon" viewBox="0 0 1024 1024" version="1.1" xmlns="http://www.w3.org/2000/svg" p-id="13129" xmlns:xlink="http://www.w3.org/1999/xlink" width="200" height="200"><path d="M931.2 276.5l-211.4-190c-15.7-14.1-35.3-21-54.8-21-22.5 0-44.8 9.2-61 27.2L434.6 281.2c-10.6 11.8-24.6 20.2-40 23.9l-229.6 56c-56.1 13.7-73.9 84.5-31 123.1l201.8 181.3L70.2 931.1c-6.2 6.2-6.2 16.4 0 22.6 3.1 3.1 7.2 4.7 11.3 4.7s8.2-1.6 11.3-4.7L359.6 687l238.5 214.3c14.1 12.7 31 18.5 47.6 18.5 33.8 0 66.4-24 71.5-62.4l31.2-234.3c2.1-15.8 8.9-30.5 19.5-42.4l169.4-188.5c30.3-33.6 27.6-85.5-6.1-115.7z m-17.6 94.4L744.1 559.4c-15 16.7-24.5 37.3-27.5 59.5l-31.2 234.3c-3 22.7-22.3 34.6-39.8 34.6-6.8 0-16.8-1.8-26.2-10.3L155.3 460.4c-11.2-10-15.6-24.7-12-39.3 3.7-14.6 14.6-25.4 29.2-28.9l229.6-56c21.8-5.3 41.3-16.9 56.3-33.6l169.4-188.5c9.5-10.5 23-16.6 37.2-16.6 12.3 0 24.2 4.5 33.4 12.8l211.4 190c20.5 18.4 22.2 50.1 3.8 70.6z" fill="#eceff1" p-id="13130"></path></svg>