<?xml version="1.0" standalone="no"?><!DOCTYPE svg PUBLIC "-//W3C//DTD SVG 1.1//EN" "http://www.w3.org/Graphics/SVG/1.1/DTD/svg11.dtd"><svg t="1710501105764" class="icon" viewBox="0 0 1024 1024" version="1.1" xmlns="http://www.w3.org/2000/svg" p-id="19637" xmlns:xlink="http://www.w3.org/1999/xlink" width="200" height="200"><path d="M166.976 913.792L357.952 774.4l40.576-28.352 132.416 132.48a41.344 41.344 0 0 0 50.368 5.76c8.512-5.568 74.24-50.432 65.6-146.88L285.632 376.128c-95.424-6.848-139.52 57.344-145.28 66.496a41.6 41.6 0 0 0 6.528 49.6l134.016 133.312-170.496 230.848a41.024 41.024 0 1 0 32.768 65.216 39.296 39.296 0 0 0 23.808-7.808z m273.024-564.288l235.712 235.712c7.68-11.392 16.512-22.592 26.112-33.088 29.12-31.616 58.624-48.832 83.2-48.832 6.144 0 12.736 0.384 18.432 0.384 25.024 1.28 63.168 2.496 91.008-25.408a89.6 89.6 0 0 0 27.072-64.768c0-24.64-9.856-48-27.072-65.28a123399.68 123399.68 0 0 0-223.36-223.04c-0.832-0.832-1.28-1.664-2.048-2.048a91.2 91.2 0 0 0-122.56 6.144c-27.52 27.52-26.24 64.64-25.408 89.28v0.96c0.384 6.144 0.384 12.672 0.384 18.88 0 26.24-24.576 64-62.72 96.32a287.36 287.36 0 0 1-18.752 14.784z" p-id="19638" fill="#e6e6e6"></path><path d="M862.08 865.92l-704-704 67.84-67.84 704 704-67.84 67.84z m81.92-33.92q0 4.736-0.896 9.344-0.96 4.672-2.752 9.024-1.792 4.352-4.48 8.32-2.56 3.904-5.952 7.232-3.328 3.392-7.232 6.016-3.968 2.56-8.32 4.416-4.352 1.792-8.96 2.752-4.672 0.896-9.408 0.896t-9.344-0.896q-4.672-0.96-9.024-2.752-4.352-1.792-8.32-4.48-3.904-2.56-7.232-5.952-3.392-3.328-6.016-7.232-2.56-3.968-4.416-8.32-1.792-4.352-2.752-8.96-0.896-4.672-0.896-9.408t0.896-9.344q0.96-4.672 2.752-9.024 1.792-4.352 4.48-8.32 2.56-3.904 5.952-7.232 3.328-3.392 7.232-6.016 3.968-2.56 8.32-4.416 4.352-1.792 8.96-2.752 4.672-0.896 9.408-0.896t9.344 0.896q4.672 0.96 9.024 2.752 4.352 1.792 8.32 4.48 3.904 2.56 7.232 5.952 3.392 3.328 6.016 7.232 2.56 3.968 4.416 8.32 1.792 4.352 2.752 8.96 0.896 4.672 0.896 9.408z m-704-704q0 4.736-0.896 9.344-0.96 4.672-2.752 9.024-1.792 4.352-4.48 8.32-2.56 3.904-5.952 7.232-3.328 3.392-7.232 6.016-3.968 2.56-8.32 4.416-4.352 1.792-8.96 2.752-4.672 0.896-9.408 0.896t-9.344-0.896q-4.672-0.96-9.024-2.752-4.352-1.792-8.32-4.48-3.904-2.56-7.232-5.952-3.392-3.328-6.016-7.232-2.56-3.968-4.416-8.32-1.792-4.352-2.752-8.96Q144 132.672 144 128t0.896-9.344q0.96-4.672 2.752-9.024 1.792-4.352 4.48-8.32 2.56-3.904 5.952-7.232 3.328-3.392 7.232-6.016 3.968-2.56 8.32-4.416 4.352-1.792 8.96-2.752 4.672-0.896 9.408-0.896t9.344 0.896q4.672 0.96 9.024 2.752 4.352 1.792 8.32 4.48 3.904 2.56 7.232 5.952 3.392 3.328 6.016 7.232 2.56 3.968 4.416 8.32 1.792 4.352 2.752 8.96 0.896 4.672 0.896 9.408z" p-id="19639" fill="#eceff1"></path></svg>