<?xml version="1.0" standalone="no"?><!DOCTYPE svg PUBLIC "-//W3C//DTD SVG 1.1//EN" "http://www.w3.org/Graphics/SVG/1.1/DTD/svg11.dtd"><svg t="1709811017601" class="icon" viewBox="0 0 1024 1024" version="1.1" xmlns="http://www.w3.org/2000/svg" p-id="7900" xmlns:xlink="http://www.w3.org/1999/xlink" width="200" height="200"><path d="M0 0m109.73184 0l621.69088 0q109.73184 0 109.73184 109.73184l0 621.69088q0 109.73184-109.73184 109.73184l-621.69088 0q-109.73184 0-109.73184-109.73184l0-621.69088q0-109.73184 109.73184-109.73184Z" fill="#216FF8" p-id="7901"></path><path d="M182.8864 182.84544m109.73184 0l621.69088 0q109.73184 0 109.73184 109.73184l0 621.69088q0 109.73184-109.73184 109.73184l-621.69088 0q-109.73184 0-109.73184-109.73184l0-621.69088q0-109.73184 109.73184-109.73184Z" fill="#216FF8" fill-opacity=".19" p-id="7902"></path><path d="M828.6208 877.73184H414.76096a48.82432 48.82432 0 0 1-49.02912-49.02912V414.76096c0-27.2384 21.79072-49.02912 49.02912-49.02912H828.6208c27.2384 0 49.02912 21.79072 49.02912 49.02912v413.94176a49.5616 49.5616 0 0 1-49.02912 49.02912z m-408.49408-54.4768h403.08736v-403.0464h-403.0464v403.0464z" fill="#FFFFFF" p-id="7903"></path><path d="M400.54784 480.09216h442.28608v54.4768H400.54784v-54.4768z" fill="#FFFFFF" p-id="7904"></path><path d="M482.22208 390.7584h43.58144v110.05952h-43.58144V390.7584z m117.67808 0h43.58144v110.05952h-43.58144V390.7584z m115.5072 0h43.54048v110.05952h-43.58144V390.7584z m6.51264 273.44896l-139.4688-80.60928a17.6128 17.6128 0 0 0-26.13248 15.23712v161.21856c0 13.1072 14.17216 21.79072 26.13248 15.27808l139.4688-80.60928c11.96032-7.61856 11.96032-23.9616 0-30.5152z" fill="#FFFFFF" p-id="7905"></path></svg>