<?xml version="1.0" encoding="iso-8859-1"?>
<!-- Uploaded to: SVG Repo, www.svgrepo.com, Generator: SVG Repo Mixer Tools -->
<svg version="1.1" id="Layer_1" xmlns="http://www.w3.org/2000/svg" xmlns:xlink="http://www.w3.org/1999/xlink" 
	 viewBox="0 0 508 508" xml:space="preserve">
<path style="fill:#0055ff;" d="M508,254c0,70.8-28.8,134.4-75.2,180.4C386.8,480,323.6,508,254,508s-132.8-28-178.8-73.6
	C28.8,388.4,0,324.8,0,254C0,113.6,113.6,0,254,0S508,113.6,508,254z"/>
<circle style="fill:#2B3B4E;" cx="254" cy="254" r="175.2"/>
<circle style="fill:#324A5E;" cx="254" cy="254" r="139.6"/>
<g>
	<rect x="250.4" y="127.6" style="fill:#FFFFFF;" width="7.2" height="36.4"/>
	
		<rect x="192.774" y="143.189" transform="matrix(-0.866 0.5 -0.5 -0.866 443.5347 189.5306)" style="fill:#FFFFFF;" width="7.2" height="22"/>
	
		<rect x="350.479" y="185.516" transform="matrix(-0.5 -0.866 0.866 -0.5 360.9355 601.4152)" style="fill:#FFFFFF;" width="7.2" height="22"/>
	
		<rect x="150.537" y="185.178" transform="matrix(-0.5 0.866 -0.866 -0.5 401.101 160.7828)" style="fill:#FFFFFF;" width="7.2" height="22"/>
	
		<rect x="308.038" y="143.201" transform="matrix(-0.866 -0.5 0.5 -0.866 504.4194 443.5646)" style="fill:#FFFFFF;" width="7.2" height="22"/>
	
		<rect x="209.191" y="135.957" transform="matrix(-0.9239 0.3827 -0.3827 -0.9239 468.379 215.1462)" style="fill:#FFFFFF;" width="7.2" height="36.401"/>
</g>
<rect x="350.332" y="194.635" transform="matrix(-0.3827 -0.9239 0.9239 -0.3827 292.7447 621.2758)" style="fill:#FFD05B;" width="7.2" height="36.401"/>
<g>
	
		<rect x="159.061" y="172.699" transform="matrix(-0.6088 0.7933 -0.7933 -0.6088 407.4228 166.4957)" style="fill:#FFFFFF;" width="7.2" height="22"/>
	
		<rect x="320.419" y="151.526" transform="matrix(-0.7933 -0.6088 0.6088 -0.7933 482.121 488.7269)" style="fill:#FFFFFF;" width="7.2" height="22"/>
	
		<rect x="265.591" y="128.809" transform="matrix(-0.9914 -0.1305 0.1305 -0.9914 517.8335 313.5516)" style="fill:#FFFFFF;" width="7.2" height="21.999"/>
</g>
<rect x="291.995" y="136.091" transform="matrix(-0.9239 -0.3826 0.3826 -0.9239 509.6654 409.9381)" style="fill:#FFD05B;" width="7.2" height="36.4"/>
<rect x="150.597" y="194.65" transform="matrix(0.3827 -0.9239 0.9239 0.3827 -101.4605 273.8535)" style="fill:#FF7058;" width="7.2" height="36.401"/>
<g>
	
		<rect x="235.583" y="128.772" transform="matrix(-0.9914 0.1305 -0.1305 -0.9914 494.5607 247.1336)" style="fill:#FFFFFF;" width="7.2" height="21.999"/>
	
		<rect x="180.364" y="151.543" transform="matrix(-0.7934 0.6087 -0.6087 -0.7934 428.8621 179.5263)" style="fill:#FFFFFF;" width="7.2" height="22"/>
	
		<rect x="341.996" y="172.994" transform="matrix(-0.6088 -0.7933 0.7933 -0.6088 410.0331 570.1781)" style="fill:#FFFFFF;" width="7.2" height="22"/>
</g>
<rect x="326.946" y="159.286" transform="matrix(-0.7071 -0.7071 0.7071 -0.7071 438.7764 536.7187)" style="fill:#FFD05B;" width="7.2" height="36.4"/>
<rect x="174.191" y="159.578" transform="matrix(0.7071 -0.7071 0.7071 0.7071 -73.6338 177.7871)" style="fill:#FF7058;" width="7.2" height="36.4"/>
<g>
	
		<rect x="280.418" y="131.663" transform="matrix(-0.9659 -0.2589 0.2589 -0.9659 521.4175 353.9935)" style="fill:#FFFFFF;" width="7.2" height="22"/>
	
		<rect x="220.746" y="131.549" transform="matrix(-0.9659 0.2588 -0.2588 -0.9659 477.9415 222.1783)" style="fill:#FFFFFF;" width="7.2" height="21.999"/>
</g>
<circle style="fill:#ACB3BA;" cx="254" cy="316" r="28.8"/>
<path style="fill:#FFFFFF;" d="M293.6,202.8c0.8-2.4-0.8-4.8-3.2-5.6c-2.4-0.8-5.2,0.4-6,2.8l-48.8,144.4v0.4
	c-1.6,5.2,1.2,10.8,6.4,12c5.2,1.2,10.4-1.6,11.6-6.8L293.6,202.8z"/>
<path style="fill:#ACB3BA;" d="M367.2,290.8c-0.4-4.4-2.8-9.6-6-13.2c-0.4-0.4-0.8-0.8-0.8-1.2c-0.4-0.4-0.8-1.2-1.2-1.6
	c-0.8-1.2-1.6-2.4-2-4l0,0c0.4,0,0.4-0.4,0.4-0.4l-0.4-1.2c0-0.4-0.4-0.4-0.4-0.4l0,0l-1.6-7.6l0.8-0.8V260l-2.4-3.6
	c0-0.4-0.4-0.4-0.4-0.4h-0.4l-2.8-1.2c0,0,0,0-0.4,0l0,0l-2.8-2c-0.4-0.4-0.8-0.4-1.2-0.4l-0.8-0.4v-6c0-1.6-1.2-3.2-3.2-3.2H310
	c-1.6,0-3.2,1.2-3.2,3.2v57.2c-2,0-3.6,2-3.6,4l0,0c0,2.4,1.6,4,4,4h37.2c2.4,0,4-1.6,4-4l0,0c0-2-1.6-3.6-3.6-4v-28
	c0.8,0.4,1.6,0.8,2.4,1.6c1.6,1.6,2.4,3.6,2,6c0,1.6-0.4,2.8-0.8,4.4c-0.4,2-1.2,4-0.8,6.4c0.8,4.8,4.4,6.8,7.6,6.8
	c0.4,0,0.8,0,1.6,0C362.4,299.2,367.6,295.2,367.2,290.8z M350.8,261.6l2,0.4l1.2,4.4l-2.8,0.8l0.8-4c0,0,0-0.4-0.4-0.4l0,0
	L350.8,261.6L350.8,261.6z M350,262.8l1.2,0.4l-0.4,4c0,0-0.4,0-0.4-0.4l-0.8-3.2C349.6,263.2,349.6,263.2,350,262.8z M311.2,246.4
	H342v23.2h-30.8V246.4z M357.2,298.4c-1.6,0.4-6.8,0.4-7.6-5.2c-0.4-2,0-3.6,0.8-5.6c0.4-1.6,0.8-3.2,0.8-4.4c0-2.8-0.8-5.2-2.4-7.2
	c-0.8-0.8-2-1.6-3.2-2v-20.4c0.4,0,0.8,0.4,1.2,0.8l2,2l0,0v0.4l0.8,0.4c0,0-0.4,0-0.4,0.4l-0.8,2v0.4l0.4,1.6c0,0.4,0,0.4,0.4,0.4
	l0.8,6.4c0,0.8,0.8,1.2,1.2,0.8l4-0.8l0.4,1.2l0,0c-0.4,0-0.4,0.4-0.4,0.4l0.4,1.2c0,0.4,0.4,0.4,0.4,0.4l0,0
	c0.4,1.6,1.2,3.2,2.4,4.4c0.4,0.4,0.8,1.2,1.6,1.6c0.4,0.4,0.8,0.8,0.8,1.2c2.8,3.2,5.2,8.4,5.6,12.4
	C366,294.4,361.6,298,357.2,298.4z"/>
</svg>