<?xml version="1.0" standalone="no"?><!DOCTYPE svg PUBLIC "-//W3C//DTD SVG 1.1//EN" "http://www.w3.org/Graphics/SVG/1.1/DTD/svg11.dtd"><svg t="1713020773807" class="icon" viewBox="0 0 1024 1024" version="1.1" xmlns="http://www.w3.org/2000/svg" p-id="1727" xmlns:xlink="http://www.w3.org/1999/xlink" width="64" height="64"><path d="M878.933333 396.8c-12.8 4.266667-21.333333 8.533333-34.133333 8.533333-29.866667 0-59.733333-17.066667-72.533333-42.666666-21.333333-38.4-12.8-85.333333 21.333333-110.933334C742.4 196.266667 674.133333 153.6 597.333333 136.533333 593.066667 179.2 554.666667 213.333333 512 213.333333S430.933333 179.2 426.666667 136.533333c-76.8 17.066667-145.066667 59.733333-196.266667 115.2 34.133333 25.6 46.933333 72.533333 21.333333 110.933334-17.066667 25.6-42.666667 42.666667-72.533333 42.666666-12.8 0-21.333333-4.266667-34.133333-8.533333C132.266667 435.2 128 473.6 128 512s4.266667 76.8 17.066667 115.2c12.8-4.266667 21.333333-8.533333 34.133333-8.533333 29.866667 0 59.733333 17.066667 72.533333 42.666666 21.333333 38.4 12.8 85.333333-21.333333 110.933334 51.2 55.466667 119.466667 98.133333 196.266667 115.2 4.266667-42.666667 38.4-76.8 85.333333-76.8s81.066667 34.133333 85.333333 76.8c76.8-17.066667 145.066667-59.733333 196.266667-115.2-34.133333-25.6-46.933333-72.533333-21.333333-110.933334 17.066667-25.6 42.666667-42.666667 72.533333-42.666666 12.8 0 21.333333 4.266667 34.133333 8.533333 12.8-34.133333 17.066667-72.533333 17.066667-115.2s-4.266667-76.8-17.066667-115.2z m-29.866666 179.2c-4.266667 0-4.266667 0 0 0-46.933333 0-89.6 25.6-115.2 64-25.6 42.666667-21.333333 89.6 0 128-34.133333 29.866667-72.533333 51.2-110.933334 64-21.333333-38.4-64-64-110.933333-64s-89.6 25.6-110.933333 68.266667c-42.666667-12.8-76.8-34.133333-110.933334-64 21.333333-38.4 25.6-89.6 0-128-21.333333-38.4-64-64-110.933333-64h-4.266667C170.666667 554.666667 170.666667 533.333333 170.666667 512s0-42.666667 4.266666-64h4.266667c46.933333 0 89.6-25.6 110.933333-64 25.6-42.666667 21.333333-89.6 0-128 34.133333-29.866667 72.533333-51.2 110.933334-64 21.333333 38.4 64 64 110.933333 64s89.6-25.6 110.933333-68.266667c42.666667 12.8 76.8 34.133333 110.933334 64-21.333333 38.4-25.6 89.6 0 128 21.333333 38.4 64 64 110.933333 64h4.266667c4.266667 25.6 4.266667 46.933333 4.266666 68.266667s0 42.666667-4.266666 64zM512 298.666667c-119.466667 0-213.333333 93.866667-213.333333 213.333333s93.866667 213.333333 213.333333 213.333333 213.333333-93.866667 213.333333-213.333333-93.866667-213.333333-213.333333-213.333333z m0 384c-93.866667 0-170.666667-76.8-170.666667-170.666667s76.8-170.666667 170.666667-170.666667 170.666667 76.8 170.666667 170.666667-76.8 170.666667-170.666667 170.666667z m85.333333-170.666667c0 46.933333-38.4 85.333333-85.333333 85.333333s-85.333333-38.4-85.333333-85.333333 38.4-85.333333 85.333333-85.333333 85.333333 38.4 85.333333 85.333333z" fill="#d81e06" p-id="1728"></path></svg>