<?xml version="1.0" standalone="no"?><!DOCTYPE svg PUBLIC "-//W3C//DTD SVG 1.1//EN" "http://www.w3.org/Graphics/SVG/1.1/DTD/svg11.dtd"><svg t="1713020696040" class="icon" viewBox="0 0 1024 1024" version="1.1" xmlns="http://www.w3.org/2000/svg" p-id="1211" xmlns:xlink="http://www.w3.org/1999/xlink" width="64" height="64"><path d="M725.333333 341.333333c0-119.466667-93.866667-213.333333-213.333333-213.333333s-213.333333 93.866667-213.333333 213.333333 93.866667 213.333333 213.333333 213.333334 213.333333-93.866667 213.333333-213.333334z m-213.333333 170.666667c-93.866667 0-170.666667-76.8-170.666667-170.666667s76.8-170.666667 170.666667-170.666666 170.666667 76.8 170.666667 170.666666-76.8 170.666667-170.666667 170.666667z m371.2 332.8C840.533333 678.4 691.2 554.666667 512 554.666667s-328.533333 123.733333-371.2 290.133333c-8.533333 25.6 12.8 51.2 42.666667 51.2h661.333333c25.6 0 46.933333-25.6 38.4-51.2zM183.466667 853.333333c34.133333-140.8 157.866667-243.2 298.666666-256-25.6 42.666667-55.466667 123.733333-55.466666 256h170.666666c0-128-29.866667-209.066667-55.466666-256 140.8 12.8 264.533333 115.2 298.666666 256H183.466667z" fill="#1296db" p-id="1212"></path></svg>